<?xml version="1.0" encoding="utf-8"?>
<!-- Generator: Adobe Illustrator 16.0.0, SVG Export Plug-In . SVG Version: 6.00 Build 0)  -->
<!DOCTYPE svg PUBLIC "-//W3C//DTD SVG 1.1//EN" "http://www.w3.org/Graphics/SVG/1.1/DTD/svg11.dtd">
<svg version="1.1" id="Layer_1" xmlns="http://www.w3.org/2000/svg" xmlns:xlink="http://www.w3.org/1999/xlink" x="0px" y="0px"
	 width="512px" height="512px" viewBox="0 0 512 512" enable-background="new 0 0 512 512" xml:space="preserve">
<g>
	<g>
		<g>
			<path fill="#49A0AE" d="M7.9,256C7.9,119,119,7.9,256,7.9C393,7.9,504.1,119,504.1,256c0,137-111.1,248.1-248.1,248.1
				C119,504.1,7.9,393,7.9,256z"/>
		</g>
	</g>
	<g>
		<g>
			<path fill="#99AEB2" d="M457,193.7c0.2-2.5-61,81-74.4,81c-1.3,0-152.3,46.5-153.4,48.3c0,0-68.9,90.1-63.3,90.1
				C357.8,413.1,445.3,351.1,457,193.7z"/>
		</g>
		<g>
			<path fill="#A6BEC4" d="M446,147.6c-38.2-61.8-154.8-80.9-159.8-81.7c-2.3-0.4-4.7,0.7-5.9,2.7c-1.2,2-1.1,4.6,0.2,6.5l40.2,55.5
				l1.8,23.8c0.1,1.9,1.2,3.6,2.8,4.5c1.6,1,3.6,1.2,5.3,0.5c16.9-6.8,32.9-10.3,47.5-10.3c38.4,0,56.7,23.4,60.2,28.5
				c1.7,13.7-1.2,24.7-8.9,33.6c-16.1,18.6-49.6,22.3-64.6,23l10.1-23c0.8-1.9,0.6-4.1-0.6-5.8c-1.2-1.7-3.2-2.6-5.3-2.4l-81,7.7
				l-32.1-11.3c-1.5-0.5-3.2-0.4-4.6,0.3c-1.4,0.7-2.5,2-3,3.5L228,267.9c-76.1,8.1-136.5,78.9-139.1,82c-1.3,1.6-1.7,3.7-1.1,5.6
				c0.6,1.9,2.2,3.4,4.2,3.9c0,0,25.6-1.8,60.2,8.7l-55.5,23.5c-2.7,1.1-4.2,3.9-3.6,6.7c0.6,2.8,3.2,4.8,6.1,4.6l63.1,0.7
				c-1,1.9-0.9,3.4-0.3,5c0.9,2.5,3.3,4.2,6.1,4.2c2.2,0,5.4-0.7,20.3-9c31-17.2,39.4-53.1,41.5-66.3
				c179.6-17.1,221.8-116.5,223.5-120.7c0.1-0.1,0.1-0.3,0.2-0.4C461.4,191.5,458.8,168.3,446,147.6z"/>
		</g>
		<g>
			<path fill="#232323" d="M177.6,327.9c0,6.7-5.4,12.1-12.1,12.1c-6.7,0-12.1-5.4-12.1-12.1c0-6.7,5.4-12.1,12.1-12.1
				C172.2,315.8,177.6,321.2,177.6,327.9z"/>
		</g>
	</g>
</g>
</svg>
