<?xml version="1.0" encoding="utf-8"?>
<!-- Generator: Adobe Illustrator 16.0.0, SVG Export Plug-In . SVG Version: 6.00 Build 0)  -->
<!DOCTYPE svg PUBLIC "-//W3C//DTD SVG 1.1//EN" "http://www.w3.org/Graphics/SVG/1.1/DTD/svg11.dtd">
<svg version="1.1" id="Layer_1" xmlns="http://www.w3.org/2000/svg" xmlns:xlink="http://www.w3.org/1999/xlink" x="0px" y="0px"
	 width="512px" height="512px" viewBox="0 0 512 512" enable-background="new 0 0 512 512" xml:space="preserve">
<g>
	<g>
		<g>
			<g>
				<g>
					<g>
						<path fill="#FABC3D" d="M7.9,256C7.9,119,119,7.9,256,7.9C393,7.9,504.1,119,504.1,256c0,137-111.1,248.1-248.1,248.1
							C119,504.1,7.9,393,7.9,256z"/>
					</g>
				</g>
			</g>
		</g>
	</g>
	<g>
		<g>
			<g>
				<path fill="#AC4736" d="M449.1,286.1c-2,51.3-103.8,91-196.5,91c-98.6,0-192.4-57.3-177-112.5c1.1-3.8-8.7-51.8,1-55.8
					c29-12.1,95,36.8,174,36.8c85.1,0,158.2-68.8,193.4-45.1C452.4,206.1,449.3,279.1,449.1,286.1z"/>
			</g>
		</g>
		<g>
			<g>
				<path fill="#E8AD7A" d="M444,200.4C475,259,358.6,320.4,253.2,320.4S47.1,246.1,80.4,188.8c41.3-70.9,64.8-7.7,170.2-7.7
					C356,181.1,407.9,132.1,444,200.4z"/>
			</g>
		</g>
		<g>
			<g>
				<path fill="#952F25" d="M436.5,202c29.7,56.1-81.9,115-183,115c-101,0-197.6-71.2-165.7-126.1c39.6-68,62.1-7.4,163.2-7.4
					C352.1,183.4,401.9,136.4,436.5,202z"/>
			</g>
		</g>
		<g>
			<g>
				<path fill="#702414" d="M337.4,214.2c0,6.9-10,12.5-22.3,12.5c-12.3,0-22.4-5.6-22.4-12.5c0-6.9,13.9-9.3,26.3-9.3
					C331.3,204.9,337.4,207.3,337.4,214.2z"/>
			</g>
		</g>
		<g>
			<g>
				<path fill="#702414" d="M186.6,173.8c0,0,23.2,11.6,11.6,33.1c0,0,19.3-11.6,25.8-25.8L186.6,173.8z"/>
			</g>
		</g>
		<g>
			<path fill="#702414" d="M350.9,304.9c0-0.2,0.1-0.5,0.1-0.8c-0.6,0.2-1.2,0.4-1.8,0.6L350.9,304.9z"/>
			<path fill="#702414" d="M388.8,164.1c-12.2,30.9-42.3,109.4-45.3,140l5.8,0.6c0.6-0.2,1.2-0.4,1.8-0.6
				c3.4-30.7,34.5-111.2,45.7-139.6C394.1,164.2,391.5,164.1,388.8,164.1z"/>
			<path fill="#702414" d="M431,181.4c-10,25.6-26.9,70.6-36.2,103.7c3.3-1.8,6.4-3.7,9.4-5.6c8.9-29.9,23-67.5,32.2-91.4
				C434.7,185.7,432.8,183.5,431,181.4z"/>
			<path fill="#702414" d="M193.1,174.3c-11.4,29.1-34.2,89.3-41.7,123.4c2.3,1.1,4.7,2.1,7,3.1c6.9-33.2,30.7-95.9,42.1-124.9
				C198,175.4,195.5,174.9,193.1,174.3z"/>
			<path fill="#702414" d="M148,160.4c-8.6,21.6-28.5,73.1-39.3,110.9c2.1,1.7,4.2,3.4,6.4,5c10.5-37.5,31.5-91.7,40.1-113.5
				C152.7,161.9,150.3,161.1,148,160.4z"/>
			<path fill="#702414" d="M113.6,156.3c-7.6,19.3-20.9,53.9-31,85.1c1.6,2.7,3.3,5.4,5.3,8.1c10.9-34.4,26.7-75.3,34.2-94.4
				C119.2,155.3,116.3,155.6,113.6,156.3z"/>
			<path fill="#702414" d="M286.7,179.2c-12.3,30.6-40.7,103.4-48.9,140.6c2.5,0.2,5.1,0.3,7.6,0.4c8.7-38.1,38.8-114.5,49.8-141.9
				C292.4,178.6,289.6,178.9,286.7,179.2z"/>
			<path fill="#702414" d="M236,180.6c-9.7,23.9-35.4,88.9-47.2,130.8c2.4,0.7,4.8,1.3,7.3,1.9c12-42.6,39.3-111.1,47.9-132.4
				C241.3,180.9,238.6,180.8,236,180.6z"/>
			<path fill="#702414" d="M339.3,171c-12.7,33.1-42.9,113.5-48,146.8c2.6-0.3,5.2-0.7,7.8-1.1c6.1-35,37.8-118.6,48.9-147.4
				C345.2,169.8,342.3,170.4,339.3,171z"/>
		</g>
	</g>
</g>
</svg>
