<?xml version="1.0" encoding="utf-8"?>
<!-- Generator: Adobe Illustrator 16.0.0, SVG Export Plug-In . SVG Version: 6.00 Build 0)  -->
<!DOCTYPE svg PUBLIC "-//W3C//DTD SVG 1.1//EN" "http://www.w3.org/Graphics/SVG/1.1/DTD/svg11.dtd">
<svg version="1.1" id="Layer_1" xmlns="http://www.w3.org/2000/svg" xmlns:xlink="http://www.w3.org/1999/xlink" x="0px" y="0px"
	 width="512px" height="512px" viewBox="0 0 512 512" enable-background="new 0 0 512 512" xml:space="preserve">
<g>
	<g>
		<path fill="#EDC92C" d="M18.9,256C18.9,119,126.1,7.9,258.5,7.9C390.8,7.9,498,119,498,256c0,137-107.3,248.1-239.6,248.1
			C126.1,504.1,18.9,393,18.9,256z"/>
		<path fill="#E9B82B" d="M18.9,256H498c0,137-107.3,248.1-239.6,248.1C126.1,504.1,18.9,393,18.9,256z"/>
		<path fill="#ED3432" d="M420.8,215.5c0-48.2-34.6-79.9-77.2-79.9c-27,0-50.9,14-64.8,35.3l-11,14.5l-9.9-13.1
			c-13.7-22.1-37.7-36.7-64.9-36.7c-42.6,0-77.2,30.5-77.2,79.9c0,74.2,140.8,190.7,140.8,190.7c6,6.2,15.6,6.2,21.6,0
			C278.2,406.2,420.8,287.7,420.8,215.5z"/>
		<path fill="#D62127" d="M127.6,258.2c33.9,69.2,129,148,129,148c6,6.2,15.6,6.2,21.6,0c0,0,94.2-78.2,129.5-146.3l-107.8-0.8
			L280,231.2L254.4,259l-20.8-24.8l-37.2,65.3l-15.8-40.8L157,195l-23.6,63.4L127.6,258.2z"/>
		
			<polyline fill="none" stroke="#FBD5D4" stroke-width="2.5" stroke-linecap="round" stroke-linejoin="round" stroke-miterlimit="10" points="
			7.9,259 133.4,259 156.1,191.1 196.4,299.4 233.6,234.2 254.4,259 277.1,230.9 299.8,259 504.1,259 		"/>
	</g>
</g>
</svg>
