<?xml version="1.0" encoding="utf-8"?>
<!-- Generator: Adobe Illustrator 16.0.0, SVG Export Plug-In . SVG Version: 6.00 Build 0)  -->
<!DOCTYPE svg PUBLIC "-//W3C//DTD SVG 1.1//EN" "http://www.w3.org/Graphics/SVG/1.1/DTD/svg11.dtd">
<svg version="1.1" id="Layer_1" xmlns="http://www.w3.org/2000/svg" xmlns:xlink="http://www.w3.org/1999/xlink" x="0px" y="0px"
	 width="512px" height="512px" viewBox="0 0 512 512" enable-background="new 0 0 512 512" xml:space="preserve">
<g>
	<g>
		<path fill="#4ABC96" d="M7.9,256C7.9,119,119,7.9,256,7.9C393,7.9,504.1,119,504.1,256c0,137-111.1,248.1-248.1,248.1
			C119,504.1,7.9,393,7.9,256z"/>
	</g>
	<g>
		<path fill="#8D734F" d="M265.9,217c11.9,11.9,11.9,31.1,0,42.9l0,0c-11.9,11.9-31.1,11.9-42.9,0l-94.7-111.1
			c-11.9-11.9-9.2-21.1-1.9-28.4l0,0c7.3-7.3,16.6-10,28.4,1.9L265.9,217z"/>
		<g>
			<path fill="#C2A681" d="M401.1,210.2c0-2.6,0-5.2,0-7.6H110.3c0,60.9-5.2,193.8,145.4,193.8c68.2,0,104.5-27.3,123.7-62.8
				C401.5,287.6,403.1,231.3,401.1,210.2z"/>
			<path fill="#C2A681" d="M129.5,397.8c0-31.2,54.3-51,127.8-51c59.4,0,124.7,23,124.7,51H129.5z"/>
		</g>
		<g>
			<g>
				<path fill="#65A844" d="M301.3,286.4c-20.7,2.4-32.8,29.1-36.4,38.3c-4.8-9.2-2.2-34.1,14.9-51.2c18.6-18.6,54.1-14.1,54.1-14.1
					s4.4,35.3-14.2,53.9c-14.5,14.6-33.5,19.9-45.3,17.4C279.2,303.5,301.3,286.4,301.3,286.4z"/>
				<path fill="#608C3D" d="M264.9,324.7c3.6-9.2,15.7-35.9,36.4-38.3c0,0-22.1,17.1-27,44.4c-3.3-0.7-6-2-7.9-3.9
					C265.8,326.3,265.3,325.5,264.9,324.7z"/>
			</g>
			<g>
				<path fill="#65A844" d="M221.9,275.6c26.4,3,41.9,37.1,46.5,48.9c6.1-11.7,2.7-43.5-19-65.3c-23.7-23.7-68.9-18-68.9-18
					s-5.6,45.1,18.1,68.8c18.6,18.6,42.8,25.4,57.8,22.2C250,297.4,221.9,275.6,221.9,275.6z"/>
				<path fill="#608C3D" d="M268.4,324.4c-4.6-11.7-20.1-45.8-46.5-48.9c0,0,28.1,21.8,34.5,56.6c4.2-0.9,7.7-2.6,10.1-5
					C267.2,326.5,267.8,325.5,268.4,324.4z"/>
			</g>
		</g>
	</g>
</g>
</svg>
