<?xml version="1.0" encoding="utf-8"?>
<!-- Generator: Adobe Illustrator 16.0.0, SVG Export Plug-In . SVG Version: 6.00 Build 0)  -->
<!DOCTYPE svg PUBLIC "-//W3C//DTD SVG 1.1//EN" "http://www.w3.org/Graphics/SVG/1.1/DTD/svg11.dtd">
<svg version="1.1" id="Layer_1" xmlns="http://www.w3.org/2000/svg" xmlns:xlink="http://www.w3.org/1999/xlink" x="0px" y="0px"
	 width="512px" height="512px" viewBox="0 0 512 512" enable-background="new 0 0 512 512" xml:space="preserve">
<g>
	<g>
		<g>
			<g>
				<g>
					<g>
						<g>
							<g>
								<g>
									<path fill="#32BEA6" d="M504.1,256C504.1,119,393,7.9,256,7.9C119,7.9,7.9,119,7.9,256C7.9,393,119,504.1,256,504.1
										C393,504.1,504.1,393,504.1,256z"/>
								</g>
							</g>
						</g>
					</g>
				</g>
			</g>
		</g>
	</g>
	<g>
		<g>
			<g>
				<g>
					<g>
						<g>
							<g>
								<g>
									<g>
										<g>
											<path fill="#ABC45B" d="M408.2,207.9c0,0-48.4-54.1-151.1-54.1c-102.7,0-151.1,54.1-151.1,54.1s39.7,20,151.1,20
												S408.2,207.9,408.2,207.9z"/>
										</g>
									</g>
								</g>
							</g>
						</g>
					</g>
				</g>
			</g>
			<g>
				<g>
					<g>
						<g>
							<g>
								<g>
									<g>
										<g>
											<g>
												<g>
													<ellipse fill="#58841F" cx="156.8" cy="204" rx="22.1" ry="23.3"/>
												</g>
											</g>
										</g>
									</g>
								</g>
							</g>
						</g>
					</g>
				</g>
				<g>
					<g>
						<g>
							<g>
								<g>
									<g>
										<g>
											<g>
												<ellipse fill="#CDE580" cx="156.8" cy="204" rx="20.4" ry="21.5"/>
											</g>
										</g>
									</g>
								</g>
							</g>
						</g>
					</g>
				</g>
				<g>
					<g>
						<g>
							<g>
								<g>
									<g>
										<g>
											<g>
												<ellipse fill="#D6E88B" cx="156.8" cy="204" rx="17.3" ry="18.2"/>
											</g>
										</g>
									</g>
								</g>
							</g>
						</g>
					</g>
				</g>
				<g>
					<g>
						<g>
							<path fill="#B8C973" d="M167.4,199.5c0-0.1-0.1-0.2-0.2-0.2c-0.1,0-0.2,0-0.3,0l-6.8,4.4c-0.1,0.1-0.2,0.2-0.2,0.4
								c0,0.1,0.1,0.3,0.2,0.4l6.8,4.5c0.1,0,0.1,0.1,0.2,0.1c0,0,0.1,0,0.1,0c0.1,0,0.2-0.1,0.2-0.2
								C168.5,205.8,168.5,202.5,167.4,199.5z"/>
							<path fill="#B8C973" d="M166,210.3l-7.2-3.8c-0.1-0.1-0.3-0.1-0.4,0c-0.1,0.1-0.2,0.2-0.2,0.4l0,8.6c0,0.1,0.1,0.2,0.1,0.3
								c0,0,0.1,0.1,0.2,0.1c0.1,0,0.1,0,0.2,0c2.9-0.6,5.6-2.4,7.4-4.9c0.1-0.1,0.1-0.2,0.1-0.3C166.1,210.4,166.1,210.3,166,210.3
								z"/>
							<path fill="#B8C973" d="M158.7,201.8C158.7,201.8,158.8,201.8,158.7,201.8l7.3-4c0.1-0.1,0.2-0.2,0.2-0.3
								c0-0.1,0-0.2-0.1-0.3c-1.8-2.5-4.5-4.2-7.4-4.8c-0.1,0-0.2,0-0.3,0.1c-0.1,0.1-0.1,0.2-0.1,0.3l0,8.6c0,0.1,0.1,0.3,0.2,0.4
								C158.5,201.8,158.6,201.8,158.7,201.8z"/>
						</g>
						<g>
							<path fill="#B8C973" d="M147.2,199.5c0-0.1,0.1-0.2,0.2-0.2c0.1,0,0.2,0,0.3,0l6.8,4.4c0.1,0.1,0.2,0.2,0.2,0.4
								c0,0.1-0.1,0.3-0.2,0.4l-6.8,4.5c-0.1,0-0.1,0.1-0.2,0.1c0,0-0.1,0-0.1,0c-0.1,0-0.2-0.1-0.2-0.2
								C146.2,205.8,146.1,202.5,147.2,199.5z"/>
							<path fill="#B8C973" d="M148.7,210.3l7.2-3.8c0.1-0.1,0.3-0.1,0.4,0c0.1,0.1,0.2,0.2,0.2,0.4l0,8.6c0,0.1-0.1,0.2-0.1,0.3
								c0,0-0.1,0.1-0.2,0.1c-0.1,0-0.1,0-0.2,0c-2.9-0.6-5.6-2.4-7.4-4.9c-0.1-0.1-0.1-0.2-0.1-0.3
								C148.5,210.4,148.6,210.3,148.7,210.3z"/>
							<path fill="#B8C973" d="M155.9,201.8C155.9,201.8,155.9,201.8,155.9,201.8l-7.3-4c-0.1-0.1-0.2-0.2-0.2-0.3
								c0-0.1,0-0.2,0.1-0.3c1.8-2.5,4.5-4.2,7.4-4.8c0.1,0,0.2,0,0.3,0.1c0.1,0.1,0.1,0.2,0.1,0.3l0,8.6c0,0.1-0.1,0.3-0.2,0.4
								C156.1,201.8,156,201.8,155.9,201.8z"/>
						</g>
					</g>
				</g>
			</g>
			<g>
				<g>
					<g>
						<g>
							<g>
								<g>
									<g>
										<g>
											<g>
												<path fill="#91BC3C" d="M383,181.2c-9.8-7.1-33.6-4-33.6-4s5.9,24.6,15.7,31.7c9.8,7.1,17.9,3.8,22.8-3.8
													C392.9,197.4,392.8,188.3,383,181.2z"/>
											</g>
										</g>
									</g>
								</g>
							</g>
						</g>
					</g>
				</g>
				<g>
					<path fill="#B4D85B" d="M351,178.4l47.5,32.7c0.6,0.4,0.8,1.3,0.4,1.9c-0.4,0.6-1.2,0.8-1.8,0.4c0,0,0,0-0.1,0L351,178.4z"/>
					<path fill="#B4D85B" d="M381,187.8l4.6,14.7c0.2,0.4,0,0.9-0.3,1.1c-0.4,0.2-0.8,0-1-0.4c0,0,0-0.1,0-0.1L381,187.8z"/>
					<path fill="#B4D85B" d="M370.4,184.3l5.1,11.3c0.1,0.3,0,0.6-0.3,0.8c-0.3,0.1-0.6,0-0.7-0.3c0,0,0,0,0,0L370.4,184.3z"/>
					<path fill="#B4D85B" d="M360.9,179.8l4.7,8.7c0.1,0.2,0,0.4-0.2,0.5c-0.2,0.1-0.4,0-0.5-0.2c0,0,0,0,0,0L360.9,179.8z"/>
					<path fill="#B4D85B" d="M370.2,204.5l14.7-2.4c0.4,0,0.8,0.3,0.8,0.8c0,0.5-0.3,0.8-0.8,0.8c0,0-0.1,0-0.1,0L370.2,204.5z"/>
					<path fill="#B4D85B" d="M363.2,195.4l11.8-0.2c0.3,0,0.5,0.2,0.5,0.6c0,0.3-0.2,0.6-0.5,0.6c0,0,0,0-0.1,0L363.2,195.4z"/>
					<path fill="#B4D85B" d="M355.8,187.6l9.4,0.7c0.2,0,0.4,0.2,0.4,0.4c0,0.2-0.2,0.4-0.4,0.4c0,0,0,0,0,0L355.8,187.6z"/>
				</g>
			</g>
			<g>
				<g>
					<g>
						<g>
							<g>
								<g>
									<g>
										<g>
											<g>
												<path fill="#718C30" d="M270.7,149.1c-10.7-5.5-33.8,1.4-33.8,1.4s9.3,23.3,20.1,28.8c10.7,5.5,18.2,0.9,22-7.4
													C282.8,163.6,281.5,154.6,270.7,149.1z"/>
											</g>
										</g>
									</g>
								</g>
							</g>
						</g>
					</g>
				</g>
				<g>
					<path fill="#697C2C" d="M238.7,151.5l51.7,24.7c0.7,0.3,1,1.1,0.7,1.8c-0.3,0.7-1.1,1-1.7,0.7c0,0,0,0-0.1,0L238.7,151.5z"/>
					<path fill="#697C2C" d="M269.7,156l6.7,13.8c0.2,0.4,0.2,0.9-0.2,1.1c-0.3,0.3-0.8,0.2-1.1-0.2c0,0,0-0.1,0-0.1L269.7,156z"/>
					<path fill="#697C2C" d="M258.7,154.2l6.7,10.3c0.2,0.3,0.1,0.6-0.1,0.8c-0.2,0.2-0.6,0.1-0.8-0.1c0,0,0,0,0,0L258.7,154.2z"/>
					<path fill="#697C2C" d="M248.6,151.3l5.9,7.8c0.1,0.2,0.1,0.4-0.1,0.6c-0.2,0.1-0.4,0.1-0.5-0.1c0,0,0,0,0,0L248.6,151.3z"/>
					<path fill="#697C2C" d="M261.5,174.2l14.2-4.8c0.4-0.1,0.8,0.2,0.9,0.7c0.1,0.4-0.2,0.9-0.6,0.9c0,0-0.1,0-0.1,0L261.5,174.2z"
						/>
					<path fill="#697C2C" d="M253.2,166.3l11.7-2.1c0.3-0.1,0.6,0.2,0.6,0.5c0,0.3-0.2,0.6-0.4,0.7c0,0,0,0,0,0L253.2,166.3z"/>
					<path fill="#697C2C" d="M244.8,159.8l9.4-0.9c0.2,0,0.4,0.1,0.4,0.3c0,0.2-0.1,0.4-0.3,0.5c0,0,0,0,0,0L244.8,159.8z"/>
				</g>
			</g>
			<g>
				<g>
					<g>
						<g>
							<g>
								<g>
									<g>
										<g>
											<g>
												<path fill="#91BC3C" d="M342.6,186.4c-9.8-7.1-33.6-4-33.6-4s5.9,24.6,15.7,31.7s17.9,3.8,22.8-3.8
													C352.4,202.7,352.4,193.5,342.6,186.4z"/>
											</g>
										</g>
									</g>
								</g>
							</g>
						</g>
					</g>
				</g>
				<g>
					<path fill="#B4D85B" d="M310.6,183.6l47.5,32.7c0.6,0.4,0.8,1.3,0.4,1.9c-0.4,0.6-1.2,0.8-1.8,0.4c0,0,0,0-0.1,0L310.6,183.6z"
						/>
					<path fill="#B4D85B" d="M340.6,193.1l4.6,14.7c0.2,0.4,0,0.9-0.3,1.1s-0.8,0-1-0.4c0,0,0-0.1,0-0.1L340.6,193.1z"/>
					<path fill="#B4D85B" d="M330,189.5l5.1,11.3c0.1,0.3,0,0.6-0.3,0.8c-0.3,0.1-0.6,0-0.7-0.3c0,0,0,0,0,0L330,189.5z"/>
					<path fill="#B4D85B" d="M320.4,185l4.7,8.7c0.1,0.2,0,0.4-0.2,0.5c-0.2,0.1-0.4,0-0.5-0.2c0,0,0,0,0,0L320.4,185z"/>
					<path fill="#B4D85B" d="M329.8,209.7l14.7-2.4c0.4,0,0.8,0.3,0.8,0.8s-0.3,0.8-0.8,0.8c0,0-0.1,0-0.1,0L329.8,209.7z"/>
					<path fill="#B4D85B" d="M322.8,200.6l11.8-0.2c0.3,0,0.5,0.2,0.5,0.6c0,0.3-0.2,0.6-0.5,0.6c0,0,0,0,0,0L322.8,200.6z"/>
					<path fill="#B4D85B" d="M315.4,192.8l9.4,0.7c0.2,0,0.4,0.2,0.4,0.4c0,0.2-0.2,0.4-0.4,0.4c0,0,0,0,0,0L315.4,192.8z"/>
				</g>
			</g>
			<g>
				<g>
					<g>
						<g>
							<g>
								<g>
									<g>
										<g>
											<g>
												<path fill="#91BC3C" d="M286.4,194.4c-4.6-13.8-28.8-28-28.8-28s-10.4,27.2-5.9,40.9c4.6,13.7,14.2,16.5,23.8,13
													C285.1,216.6,291,208.1,286.4,194.4z"/>
											</g>
										</g>
									</g>
								</g>
							</g>
						</g>
					</g>
				</g>
				<g>
					<path fill="#B4D85B" d="M258.4,168.6l23.2,64.9c0.3,0.8-0.1,1.8-0.9,2.1c-0.8,0.3-1.7-0.1-2-0.9c0,0,0,0,0-0.1L258.4,168.6z"/>
					<path fill="#B4D85B" d="M280.3,199.1l-5.2,17.1c-0.1,0.5-0.5,0.9-1,0.8c-0.5-0.1-0.8-0.6-0.7-1.1c0,0,0-0.1,0-0.1L280.3,199.1z
						"/>
					<path fill="#B4D85B" d="M272.7,188.1l-2.5,14.2c-0.1,0.4-0.4,0.6-0.7,0.5c-0.3-0.1-0.6-0.4-0.5-0.8c0,0,0,0,0-0.1L272.7,188.1z
						"/>
					<path fill="#B4D85B" d="M266.7,177l-1.3,11.5c0,0.3-0.3,0.4-0.5,0.4c-0.2-0.1-0.4-0.3-0.4-0.6c0,0,0,0,0,0L266.7,177z"/>
					<path fill="#B4D85B" d="M259.4,206.9l15.3,8.4c0.4,0.3,0.5,0.9,0.2,1.3s-0.8,0.5-1.2,0.2c0,0-0.1,0-0.1-0.1L259.4,206.9z"/>
					<path fill="#B4D85B" d="M258.8,193.3l11.1,8.4c0.3,0.2,0.3,0.6,0.1,0.9c-0.2,0.3-0.6,0.4-0.9,0.2c0,0,0,0,0,0L258.8,193.3z"/>
					<path fill="#B4D85B" d="M256.9,180.6l8.3,7.4c0.2,0.2,0.2,0.4,0.1,0.7c-0.1,0.2-0.4,0.3-0.6,0.1c0,0,0,0,0,0L256.9,180.6z"/>
				</g>
			</g>
			<g>
				<g>
					<g>
						<g>
							<g>
								<g>
									<g>
										<g>
											<g>
												<path fill="#91BC3C" d="M204.1,198.6c-9.8-7.1-33.6-4-33.6-4s5.9,24.6,15.7,31.7c9.8,7.1,17.9,3.8,22.8-3.8
													C213.9,214.8,213.9,205.7,204.1,198.6z"/>
											</g>
										</g>
									</g>
								</g>
							</g>
						</g>
					</g>
				</g>
				<g>
					<path fill="#B4D85B" d="M172.1,195.8l47.5,32.7c0.6,0.4,0.8,1.3,0.4,1.9c-0.4,0.6-1.2,0.8-1.8,0.4c0,0,0,0-0.1,0L172.1,195.8z"
						/>
					<path fill="#B4D85B" d="M202.1,205.2l4.6,14.7c0.2,0.4,0,0.9-0.3,1.1c-0.4,0.2-0.8,0-1-0.4c0,0,0-0.1,0-0.1L202.1,205.2z"/>
					<path fill="#B4D85B" d="M191.5,201.7l5.1,11.3c0.1,0.3,0,0.6-0.3,0.8c-0.3,0.1-0.6,0-0.7-0.3c0,0,0,0,0,0L191.5,201.7z"/>
					<path fill="#B4D85B" d="M181.9,197.2l4.7,8.7c0.1,0.2,0,0.4-0.2,0.5c-0.2,0.1-0.4,0-0.5-0.2c0,0,0,0,0,0L181.9,197.2z"/>
					<path fill="#B4D85B" d="M191.3,221.9l14.7-2.4c0.4,0,0.8,0.3,0.8,0.8s-0.3,0.8-0.8,0.8c0,0-0.1,0-0.1,0L191.3,221.9z"/>
					<path fill="#B4D85B" d="M184.3,212.7l11.8-0.2c0.3,0,0.5,0.2,0.5,0.6c0,0.3-0.2,0.6-0.5,0.6c0,0,0,0,0,0L184.3,212.7z"/>
					<path fill="#B4D85B" d="M176.9,205l9.4,0.7c0.2,0,0.4,0.2,0.4,0.4c0,0.2-0.2,0.4-0.4,0.4c0,0,0,0,0,0L176.9,205z"/>
				</g>
			</g>
			<g>
				<g>
					<g>
						<g>
							<g>
								<g>
									<g>
										<g>
											<g>
												<path fill="#91BC3C" d="M239.4,205.2c7.1-10.9,4-37.3,4-37.3s-24.4,6.5-31.4,17.4c-7.1,10.9-3.8,19.8,3.8,25.3
													C223.3,216.2,232.3,216.2,239.4,205.2z"/>
											</g>
										</g>
									</g>
								</g>
							</g>
						</g>
					</g>
				</g>
				<g>
					<path fill="#B4D85B" d="M242.1,169.8l-32.4,52.7c-0.4,0.7-1.3,0.9-1.9,0.4c-0.6-0.4-0.8-1.3-0.4-2c0,0,0,0,0-0.1L242.1,169.8z"
						/>
					<path fill="#B4D85B" d="M232.8,203l-14.6,5.1c-0.4,0.2-0.9,0-1.1-0.4c-0.2-0.4,0-0.9,0.4-1.1c0,0,0.1,0,0.1,0L232.8,203z"/>
					<path fill="#B4D85B" d="M236.3,191.3l-11.2,5.7c-0.3,0.1-0.6,0-0.8-0.3c-0.1-0.3,0-0.7,0.3-0.8c0,0,0,0,0,0L236.3,191.3z"/>
					<path fill="#B4D85B" d="M240.8,180.7l-8.6,5.2c-0.2,0.1-0.4,0-0.5-0.2c-0.1-0.2,0-0.5,0.2-0.6c0,0,0,0,0,0L240.8,180.7z"/>
					<path fill="#B4D85B" d="M216.2,191.1l2.4,16.3c0,0.5-0.3,0.9-0.8,0.9c-0.4,0-0.8-0.4-0.8-0.8c0,0,0-0.1,0-0.1L216.2,191.1z"/>
					<path fill="#B4D85B" d="M225.3,183.3l0.2,13.1c0,0.3-0.2,0.6-0.6,0.6c-0.3,0-0.6-0.3-0.6-0.6c0,0,0,0,0-0.1L225.3,183.3z"/>
					<path fill="#B4D85B" d="M233,175.1l-0.6,10.4c0,0.2-0.2,0.4-0.4,0.4c-0.2,0-0.4-0.2-0.4-0.4c0,0,0,0,0,0L233,175.1z"/>
				</g>
			</g>
			<g>
				<g>
					<g>
						<g>
							<g>
								<g>
									<g>
										<g>
											<g>
												<path fill="#91BC3C" d="M299.6,243.3c6-9.2,3.3-31.5,3.3-31.5s-20.6,5.5-26.6,14.7c-6,9.2-3.2,16.8,3.2,21.4
													S293.7,252.6,299.6,243.3z"/>
											</g>
										</g>
									</g>
								</g>
							</g>
						</g>
					</g>
				</g>
				<g>
					<path fill="#B4D85B" d="M302,213.4l-27.4,44.6c-0.3,0.6-1.1,0.7-1.6,0.4c-0.5-0.4-0.7-1.1-0.3-1.7c0,0,0,0,0,0L302,213.4z"/>
					<path fill="#B4D85B" d="M294,241.5l-12.4,4.3c-0.3,0.2-0.7,0-0.9-0.3c-0.2-0.4,0-0.8,0.3-1c0,0,0,0,0.1,0L294,241.5z"/>
					<path fill="#B4D85B" d="M297,231.5l-9.4,4.8c-0.2,0.1-0.5,0-0.6-0.2c-0.1-0.2,0-0.6,0.2-0.7c0,0,0,0,0,0L297,231.5z"/>
					<path fill="#B4D85B" d="M300.8,222.6l-7.3,4.4c-0.2,0.1-0.4,0-0.5-0.2c-0.1-0.2,0-0.4,0.2-0.5c0,0,0,0,0,0L300.8,222.6z"/>
					<path fill="#B4D85B" d="M280.1,231.4l2,13.8c0,0.4-0.3,0.7-0.7,0.7c-0.4,0-0.7-0.3-0.7-0.7c0,0,0-0.1,0-0.1L280.1,231.4z"/>
					<path fill="#B4D85B" d="M287.7,224.8l0.1,11.1c0,0.3-0.2,0.5-0.5,0.5c-0.3,0-0.5-0.2-0.5-0.5c0,0,0,0,0,0L287.7,224.8z"/>
					<path fill="#B4D85B" d="M294.3,217.8l-0.5,8.8c0,0.2-0.2,0.4-0.3,0.4c-0.2,0-0.3-0.2-0.3-0.4c0,0,0,0,0,0L294.3,217.8z"/>
				</g>
			</g>
			<g>
				<g>
					<g>
						<g>
							<g>
								<g>
									<g>
										<g>
											<g>
												<g>
													<ellipse fill="#58841F" cx="210.8" cy="186.6" rx="17.4" ry="18.4"/>
												</g>
											</g>
										</g>
									</g>
								</g>
							</g>
						</g>
					</g>
				</g>
				<g>
					<g>
						<g>
							<g>
								<g>
									<g>
										<g>
											<g>
												<path fill="#CDE580" d="M226.9,186.6c0-9.4-7.2-17-16.1-17s-16.1,7.6-16.1,17c0,9.4,7.2,17,16.1,17
													S226.9,196,226.9,186.6z"/>
											</g>
										</g>
									</g>
								</g>
							</g>
						</g>
					</g>
				</g>
				<g>
					<g>
						<g>
							<g>
								<g>
									<g>
										<g>
											<g>
												<ellipse fill="#D6E88B" cx="210.8" cy="186.6" rx="13.6" ry="14.4"/>
											</g>
										</g>
									</g>
								</g>
							</g>
						</g>
					</g>
				</g>
				<g>
					<g>
						<g>
							<path fill="#B8C973" d="M219.2,183.1c0-0.1-0.1-0.2-0.2-0.2c-0.1,0-0.2,0-0.3,0l-5.4,3.5c-0.1,0.1-0.1,0.2-0.1,0.3
								c0,0.1,0.1,0.2,0.1,0.3l5.4,3.6c0.1,0,0.1,0.1,0.2,0.1c0,0,0.1,0,0.1,0c0.1,0,0.2-0.1,0.2-0.2C220,188,220,185.4,219.2,183.1
								z"/>
							<path fill="#B8C973" d="M218.1,191.6l-5.7-3c-0.1-0.1-0.2,0-0.3,0c-0.1,0.1-0.1,0.2-0.1,0.3l0,6.8c0,0.1,0,0.2,0.1,0.3
								c0,0,0.1,0.1,0.1,0.1c0,0,0.1,0,0.1,0c2.3-0.5,4.4-1.9,5.8-3.9c0.1-0.1,0.1-0.2,0.1-0.3C218.2,191.7,218.1,191.6,218.1,191.6
								z"/>
							<path fill="#B8C973" d="M212.3,184.9C212.4,184.9,212.4,184.9,212.3,184.9l5.7-3.1c0.1,0,0.1-0.1,0.2-0.2
								c0-0.1,0-0.2-0.1-0.3c-1.5-2-3.5-3.3-5.9-3.8c-0.1,0-0.2,0-0.3,0.1c-0.1,0.1-0.1,0.2-0.1,0.3l0,6.8c0,0.1,0.1,0.2,0.1,0.3
								C212.2,184.9,212.3,184.9,212.3,184.9z"/>
						</g>
						<g>
							<path fill="#B8C973" d="M203.3,183.1c0-0.1,0.1-0.2,0.2-0.2c0.1,0,0.2,0,0.3,0l5.4,3.5c0.1,0.1,0.1,0.2,0.1,0.3
								c0,0.1-0.1,0.2-0.1,0.3l-5.4,3.6c0,0-0.1,0.1-0.2,0.1c0,0-0.1,0-0.1,0c-0.1,0-0.2-0.1-0.2-0.2
								C202.4,188,202.4,185.4,203.3,183.1z"/>
							<path fill="#B8C973" d="M204.4,191.6l5.7-3c0.1-0.1,0.2,0,0.3,0c0.1,0.1,0.1,0.2,0.1,0.3l0,6.8c0,0.1,0,0.2-0.1,0.3
								c0,0-0.1,0.1-0.1,0.1c0,0-0.1,0-0.1,0c-2.3-0.5-4.4-1.9-5.8-3.9c-0.1-0.1-0.1-0.2-0.1-0.3
								C204.3,191.7,204.3,191.6,204.4,191.6z"/>
							<path fill="#B8C973" d="M210.1,184.9C210.1,184.9,210.1,184.9,210.1,184.9l-5.7-3.1c-0.1,0-0.1-0.1-0.2-0.2
								c0-0.1,0-0.2,0.1-0.3c1.5-2,3.5-3.3,5.9-3.8c0.1,0,0.2,0,0.3,0.1c0.1,0.1,0.1,0.2,0.1,0.3v6.8c0,0.1-0.1,0.2-0.2,0.3
								C210.3,184.9,210.2,184.9,210.1,184.9z"/>
						</g>
					</g>
				</g>
			</g>
			<g>
				<g>
					<path fill="#58841F" d="M287.6,229.3c-1.5-11.4-11.5-19.4-22.2-17.8c-10.8,1.6-18.3,12.1-16.8,23.5c0,0.2,0,0.3,0.1,0.5
						l39.1-5.7C287.6,229.6,287.6,229.5,287.6,229.3z"/>
					<g>
						<path fill="#CDE580" d="M286.1,229.5c-1.4-10.5-10.6-17.9-20.5-16.4c-10,1.5-16.9,11.2-15.5,21.7c0,0.2,0,0.3,0.1,0.5
							l36.1-5.3C286.1,229.8,286.1,229.7,286.1,229.5z"/>
					</g>
					<g>
						<path fill="#D6E88B" d="M283.3,229.9c-1.2-8.9-9-15.1-17.4-13.9c-8.4,1.2-14.3,9.5-13.2,18.4c0,0.2,0,0.3,0.1,0.4l30.5-4.5
							C283.3,230.2,283.3,230.1,283.3,229.9z"/>
					</g>
					<g>
						<g>
							<g>
								<path fill="#B8C973" d="M270.6,222.6c0.1,0,0.2,0.1,0.2,0.2c0,0.1,0.1,0.2,0,0.3l-2.9,6.9c0,0.1-0.2,0.2-0.3,0.2
									c-0.1,0-0.2,0-0.3-0.1l-4.6-5.8c0-0.1-0.1-0.1-0.1-0.2c0,0,0-0.1,0-0.1c0-0.1,0.1-0.2,0.2-0.3
									C265.3,222.4,268,222,270.6,222.6z"/>
								<path fill="#B8C973" d="M261.8,225.3l4.1,6.2c0.1,0.1,0.1,0.2,0,0.4c-0.1,0.1-0.2,0.2-0.3,0.2l-7.2,1c-0.1,0-0.2,0-0.3-0.1
									c0,0-0.1-0.1-0.1-0.1c0,0,0-0.1,0-0.2c0.2-2.8,1.3-5.5,3.2-7.5c0.1-0.1,0.2-0.1,0.3-0.1
									C261.7,225.2,261.7,225.2,261.8,225.3z"/>
								<path fill="#B8C973" d="M269.8,231.1C269.8,231,269.8,231,269.8,231.1l2.4-7.3c0-0.1,0.1-0.2,0.2-0.2c0.1,0,0.2,0,0.3,0
									c2.3,1.4,4.1,3.7,5,6.4c0,0.1,0,0.2,0,0.3c-0.1,0.1-0.1,0.2-0.3,0.2l-7.2,1.1c-0.1,0-0.2,0-0.3-0.1
									C269.8,231.3,269.8,231.2,269.8,231.1z"/>
							</g>
						</g>
					</g>
				</g>
			</g>
			<g>
				<g>
					<path fill="#58841F" d="M243.1,169.7c0-12.9-5.5-23.3-12.4-23.3c-6.8,0-12.4,10.4-12.4,23.3c0,0.2,0,0.3,0,0.5h24.7
						C243.1,170.1,243.1,169.9,243.1,169.7z"/>
					<g>
						<path fill="#CDE580" d="M242.2,169.7c0-11.9-5.1-21.5-11.4-21.5c-6.3,0-11.4,9.6-11.4,21.5c0,0.2,0,0.3,0,0.5h22.8
							C242.2,170.1,242.2,169.9,242.2,169.7z"/>
					</g>
					<g>
						<path fill="#D6E88B" d="M240.4,169.7c0-10.1-4.3-18.2-9.7-18.2c-5.3,0-9.7,8.2-9.7,18.2c0,0.2,0,0.3,0,0.5h19.3
							C240.4,170.1,240.4,169.9,240.4,169.7z"/>
					</g>
					<g>
						<g>
							<g>
								<path fill="#B8C973" d="M233.2,159.5c0.1,0,0.1,0.1,0.1,0.3c0,0.1,0,0.2,0,0.4l-2.3,7.2c0,0.1-0.1,0.2-0.2,0.2
									c-0.1,0-0.1-0.1-0.2-0.2l-2.4-7.2c0-0.1,0-0.1,0-0.2c0,0,0-0.1,0-0.1c0-0.1,0.1-0.2,0.1-0.3
									C229.9,158.4,231.6,158.4,233.2,159.5z"/>
								<path fill="#B8C973" d="M227.5,161.1l2,7.6c0,0.1,0,0.3,0,0.4c0,0.1-0.1,0.2-0.2,0.2l-4.5,0c-0.1,0-0.1-0.1-0.2-0.2
									c0-0.1,0-0.1,0-0.2c0-0.1,0-0.1,0-0.2c0.3-3.1,1.3-5.9,2.6-7.8c0.1-0.1,0.1-0.1,0.2-0.1C227.4,160.9,227.4,161,227.5,161.1z
									"/>
								<path fill="#B8C973" d="M232,168.8C232,168.7,232,168.7,232,168.8l2.1-7.7c0-0.1,0.1-0.2,0.1-0.2c0.1,0,0.1,0,0.2,0.1
									c1.3,1.9,2.2,4.7,2.6,7.9c0,0.1,0,0.2,0,0.3c0,0.1-0.1,0.2-0.2,0.2l-4.6,0c-0.1,0-0.1-0.1-0.2-0.2
									C232,169,232,168.9,232,168.8z"/>
							</g>
						</g>
					</g>
				</g>
			</g>
			<g>
				<g>
					<g>
						<g>
							<g>
								<g>
									<g>
										<g>
											<g>
												<path fill="#718C30" d="M340.9,196c12.5-4.6,25.4-29.1,25.4-29.1s-24.6-10.6-37.1-5.9c-12.5,4.6-15,14.4-11.7,24.1
													C320.7,194.7,328.5,200.6,340.9,196z"/>
											</g>
										</g>
									</g>
								</g>
							</g>
						</g>
					</g>
				</g>
				<g>
					<path fill="#697C2C" d="M364.3,167.6l-58.8,23.5c-0.7,0.3-1.6-0.1-1.9-0.9c-0.3-0.8,0.1-1.7,0.8-2c0,0,0,0,0.1,0L364.3,167.6z"
						/>
					<path fill="#697C2C" d="M336.6,189.7l-15.5-5.3c-0.5-0.1-0.8-0.6-0.7-1c0.1-0.5,0.5-0.8,1-0.7c0,0,0.1,0,0.1,0L336.6,189.7z"/>
					<path fill="#697C2C" d="M346.6,182.1l-12.9-2.5c-0.3-0.1-0.5-0.4-0.5-0.7c0.1-0.3,0.4-0.6,0.7-0.5c0,0,0,0,0.1,0L346.6,182.1z"
						/>
					<path fill="#697C2C" d="M356.6,176l-10.4-1.3c-0.2,0-0.4-0.3-0.3-0.5c0-0.2,0.3-0.4,0.5-0.4c0,0,0,0,0,0L356.6,176z"/>
					<path fill="#697C2C" d="M329.6,168.6l-7.6,15.5c-0.3,0.4-0.8,0.5-1.2,0.2s-0.5-0.8-0.2-1.3c0,0,0-0.1,0.1-0.1L329.6,168.6z"/>
					<path fill="#697C2C" d="M341.9,168l-7.6,11.3c-0.2,0.3-0.6,0.4-0.8,0.1c-0.3-0.2-0.3-0.6-0.1-0.9c0,0,0,0,0,0L341.9,168z"/>
					<path fill="#697C2C" d="M353.4,166.1l-6.7,8.4c-0.1,0.2-0.4,0.2-0.6,0.1c-0.2-0.1-0.2-0.4-0.1-0.6c0,0,0,0,0,0L353.4,166.1z"/>
				</g>
			</g>
			<g>
				<g>
					<path fill="#58841F" d="M372.7,176.2c-11.1-5.3-22.4-4.2-25.2,2.4c-2.8,6.6,4,16.2,15.1,21.5c0.1,0.1,0.3,0.1,0.4,0.2
						l10.1-23.8C373,176.4,372.9,176.3,372.7,176.2z"/>
					<g>
						<path fill="#CDE580" d="M372.3,177.1c-10.3-4.9-20.7-3.9-23.2,2.2c-2.6,6.1,3.6,14.9,13.9,19.8c0.1,0.1,0.3,0.1,0.4,0.2
							l9.3-22C372.6,177.3,372.5,177.2,372.3,177.1z"/>
					</g>
					<g>
						<path fill="#D6E88B" d="M371.6,178.8c-8.7-4.1-17.5-3.3-19.7,1.9c-2.2,5.1,3.1,12.7,11.8,16.8c0.1,0.1,0.3,0.1,0.4,0.2
							l7.9-18.6C371.9,179,371.8,178.9,371.6,178.8z"/>
					</g>
					<g>
						<g>
							<g>
								<path fill="#B8C973" d="M359.9,181.6c0.1,0,0.2,0,0.3,0c0.1,0,0.2,0.1,0.3,0.2l5.3,5.2c0.1,0.1,0.1,0.2,0.1,0.3
									c0,0.1-0.1,0.1-0.2,0.1l-7.2-0.6c-0.1,0-0.1,0-0.2-0.1c0,0-0.1,0-0.1-0.1c-0.1-0.1-0.2-0.2-0.2-0.2
									C357.6,184.4,358.3,182.7,359.9,181.6z"/>
								<path fill="#B8C973" d="M358.9,187.8l7.4,1.1c0.1,0,0.3,0.1,0.3,0.2c0.1,0.1,0.1,0.2,0.1,0.3l-1.9,4.4
									c0,0.1-0.1,0.1-0.2,0.1c-0.1,0-0.1,0-0.2,0c-0.1,0-0.1,0-0.2-0.1c-2.6-1.6-4.6-3.6-5.7-5.7c0-0.1,0-0.2,0-0.2
									C358.7,187.8,358.8,187.8,358.9,187.8z"/>
								<path fill="#B8C973" d="M367.3,186.6C367.3,186.6,367.3,186.6,367.3,186.6l-5.8-5.2c-0.1-0.1-0.1-0.2-0.1-0.2
									c0-0.1,0.1-0.1,0.1-0.1c2.2-0.5,5-0.2,7.8,0.8c0.1,0,0.2,0.1,0.3,0.2c0.1,0.1,0.1,0.2,0.1,0.2l-1.9,4.4
									c0,0.1-0.1,0.1-0.2,0.1C367.5,186.7,367.4,186.6,367.3,186.6z"/>
							</g>
						</g>
					</g>
				</g>
			</g>
			<g>
				<g>
					<g>
						<g>
							<g>
								<g>
									<g>
										<g>
											<g>
												<g>
													<ellipse fill="#58841F" cx="296.5" cy="190.2" rx="17.4" ry="18.4"/>
												</g>
											</g>
										</g>
									</g>
								</g>
							</g>
						</g>
					</g>
				</g>
				<g>
					<g>
						<g>
							<g>
								<g>
									<g>
										<g>
											<g>
												<path fill="#CDE580" d="M312.6,190.2c0-9.4-7.2-17-16.1-17s-16.1,7.6-16.1,17c0,9.4,7.2,17,16.1,17
													S312.6,199.6,312.6,190.2z"/>
											</g>
										</g>
									</g>
								</g>
							</g>
						</g>
					</g>
				</g>
				<g>
					<g>
						<g>
							<g>
								<g>
									<g>
										<g>
											<g>
												<ellipse fill="#D6E88B" cx="296.5" cy="190.2" rx="13.6" ry="14.4"/>
											</g>
										</g>
									</g>
								</g>
							</g>
						</g>
					</g>
				</g>
				<g>
					<g>
						<g>
							<path fill="#B8C973" d="M304.9,186.7c0-0.1-0.1-0.2-0.2-0.2s-0.2,0-0.3,0L299,190c-0.1,0.1-0.1,0.2-0.1,0.3
								c0,0.1,0.1,0.2,0.1,0.3l5.4,3.6c0.1,0,0.1,0,0.2,0c0,0,0.1,0,0.1,0c0.1,0,0.2-0.1,0.2-0.2C305.7,191.6,305.7,189,304.9,186.7
								z"/>
							<path fill="#B8C973" d="M303.7,195.1l-5.7-3c-0.1-0.1-0.2,0-0.3,0c-0.1,0.1-0.1,0.2-0.1,0.3l0,6.8c0,0.1,0,0.2,0.1,0.3
								c0,0,0.1,0.1,0.1,0.1c0,0,0.1,0,0.1,0c2.3-0.5,4.4-1.9,5.8-3.9c0.1-0.1,0.1-0.2,0.1-0.3C303.9,195.3,303.8,195.2,303.7,195.1
								z"/>
							<path fill="#B8C973" d="M298,188.5C298,188.5,298,188.4,298,188.5l5.7-3.1c0.1,0,0.1-0.1,0.2-0.2c0-0.1,0-0.2-0.1-0.3
								c-1.5-2-3.5-3.3-5.9-3.8c-0.1,0-0.2,0-0.3,0.1s-0.1,0.2-0.1,0.3l0,6.8c0,0.1,0.1,0.2,0.1,0.3
								C297.8,188.5,297.9,188.5,298,188.5z"/>
						</g>
						<g>
							<path fill="#B8C973" d="M288.9,186.7c0-0.1,0.1-0.2,0.2-0.2c0.1,0,0.2,0,0.3,0l5.4,3.5c0.1,0.1,0.1,0.2,0.1,0.3
								c0,0.1-0.1,0.2-0.1,0.3l-5.4,3.6c0,0-0.1,0-0.2,0c0,0-0.1,0-0.1,0c-0.1,0-0.2-0.1-0.2-0.2C288.1,191.6,288.1,189,288.9,186.7
								z"/>
							<path fill="#B8C973" d="M290.1,195.1l5.7-3c0.1-0.1,0.2,0,0.3,0c0.1,0.1,0.1,0.2,0.1,0.3l0,6.8c0,0.1,0,0.2-0.1,0.3
								c0,0-0.1,0.1-0.1,0.1c0,0-0.1,0-0.1,0c-2.3-0.5-4.4-1.9-5.8-3.9c-0.1-0.1-0.1-0.2-0.1-0.3C289.9,195.3,290,195.2,290.1,195.1
								z"/>
							<path fill="#B8C973" d="M295.8,188.5C295.8,188.5,295.7,188.4,295.8,188.5l-5.7-3.1c-0.1,0-0.1-0.1-0.2-0.2
								c0-0.1,0-0.2,0.1-0.3c1.5-2,3.5-3.3,5.9-3.8c0.1,0,0.2,0,0.3,0.1s0.1,0.2,0.1,0.3v6.8c0,0.1-0.1,0.2-0.2,0.3
								C296,188.5,295.9,188.5,295.8,188.5z"/>
						</g>
					</g>
				</g>
			</g>
			<g>
				<g>
					<g>
						<g>
							<g>
								<g>
									<g>
										<g>
											<g>
												<path fill="#718C30" d="M139.4,190.4c-13.1-6.6-41.1,1.8-41.1,1.8s11.4,28.4,24.4,35c13.1,6.6,22.2,1.1,26.8-9
													C154.1,207.9,152.4,197,139.4,190.4z"/>
											</g>
										</g>
									</g>
								</g>
							</g>
						</g>
					</g>
				</g>
				<g>
					<path fill="#697C2C" d="M100.4,193.2l62.9,30c0.8,0.4,1.2,1.4,0.8,2.2s-1.3,1.2-2.1,0.8c0,0,0,0-0.1,0L100.4,193.2z"/>
					<path fill="#697C2C" d="M138.1,198.7l8.1,16.8c0.3,0.4,0.2,1.1-0.2,1.4c-0.4,0.3-1,0.2-1.3-0.2c0,0,0-0.1-0.1-0.1L138.1,198.7z
						"/>
					<path fill="#697C2C" d="M124.7,196.5l8.1,12.5c0.2,0.3,0.1,0.7-0.2,1s-0.7,0.1-0.9-0.2c0,0,0,0,0-0.1L124.7,196.5z"/>
					<path fill="#697C2C" d="M112.5,193l7.2,9.5c0.1,0.2,0.1,0.5-0.1,0.7c-0.2,0.2-0.5,0.1-0.7-0.1c0,0,0,0,0,0L112.5,193z"/>
					<path fill="#697C2C" d="M128.1,220.9l17.3-5.8c0.5-0.1,1,0.3,1.1,0.8c0.1,0.5-0.2,1.1-0.8,1.2c0,0-0.1,0-0.1,0L128.1,220.9z"/>
					<path fill="#697C2C" d="M118.1,211.2l14.2-2.5c0.4-0.1,0.7,0.2,0.8,0.6c0.1,0.4-0.2,0.7-0.5,0.8c0,0,0,0-0.1,0L118.1,211.2z"/>
					<path fill="#697C2C" d="M107.8,203.3l11.4-1c0.3,0,0.5,0.1,0.5,0.4c0,0.3-0.1,0.5-0.4,0.6c0,0,0,0,0,0L107.8,203.3z"/>
				</g>
			</g>
			<g>
				<g>
					<g>
						<g>
							<g>
								<g>
									<g>
										<g>
											<g>
												<path fill="#718C30" d="M325,204c-12.7-6.4-39.8,1.7-39.8,1.7s11,27.5,23.7,33.9c12.7,6.4,21.5,1.1,25.9-8.8
													C339.2,221,337.7,210.4,325,204z"/>
											</g>
										</g>
									</g>
								</g>
							</g>
						</g>
					</g>
				</g>
				<g>
					<path fill="#697C2C" d="M287.3,206.8l60.9,29.1c0.8,0.4,1.1,1.3,0.8,2.2c-0.4,0.8-1.3,1.2-2,0.8c0,0,0,0-0.1,0L287.3,206.8z"/>
					<path fill="#697C2C" d="M323.8,212.1l7.8,16.3c0.3,0.4,0.2,1-0.2,1.3c-0.4,0.3-1,0.2-1.3-0.2c0,0,0-0.1-0.1-0.1L323.8,212.1z"
						/>
					<path fill="#697C2C" d="M310.9,210l7.9,12.1c0.2,0.3,0.1,0.7-0.2,0.9c-0.3,0.2-0.7,0.1-0.9-0.2c0,0,0,0,0,0L310.9,210z"/>
					<path fill="#697C2C" d="M299,206.5l6.9,9.2c0.1,0.2,0.1,0.5-0.1,0.7c-0.2,0.1-0.5,0.1-0.6-0.1c0,0,0,0,0,0L299,206.5z"/>
					<path fill="#697C2C" d="M314.1,233.6l16.7-5.6c0.5-0.1,1,0.3,1.1,0.8c0.1,0.5-0.2,1-0.7,1.1c0,0-0.1,0-0.1,0L314.1,233.6z"/>
					<path fill="#697C2C" d="M304.4,224.2l13.7-2.4c0.3-0.1,0.7,0.2,0.7,0.6c0.1,0.4-0.2,0.7-0.5,0.8c0,0,0,0-0.1,0L304.4,224.2z"/>
					<path fill="#697C2C" d="M294.4,216.6l11-1c0.2,0,0.5,0.1,0.5,0.4c0,0.3-0.1,0.5-0.4,0.6c0,0,0,0,0,0L294.4,216.6z"/>
				</g>
			</g>
			<g>
				<g>
					<path fill="#58841F" d="M328.9,232.6c11.4-4.6,18.7-13.8,16.2-20.5c-2.4-6.7-13.6-8.5-25-3.9c-0.1,0.1-0.3,0.1-0.4,0.2
						l8.8,24.4C328.6,232.7,328.7,232.7,328.9,232.6z"/>
					<g>
						<path fill="#CDE580" d="M328.5,231.7c10.5-4.2,17.2-12.7,15-18.9c-2.2-6.2-12.6-7.8-23.1-3.6c-0.2,0.1-0.3,0.1-0.4,0.2
							l8.1,22.5C328.2,231.8,328.4,231.7,328.5,231.7z"/>
					</g>
					<g>
						<path fill="#D6E88B" d="M327.9,230c8.9-3.6,14.6-10.8,12.7-16s-10.7-6.6-19.6-3.1c-0.2,0.1-0.3,0.1-0.4,0.2l6.9,19.1
							C327.6,230.1,327.8,230,327.9,230z"/>
					</g>
					<g>
						<g>
							<g>
								<path fill="#B8C973" d="M334.3,219.2c0,0.1-0.1,0.2-0.2,0.2c-0.1,0.1-0.2,0.1-0.3,0.1l-7.2,0.3c-0.1,0-0.2,0-0.2-0.1
									c0-0.1,0-0.2,0.1-0.3l5.5-4.9c0.1,0,0.1-0.1,0.2-0.1c0,0,0.1,0,0.1,0c0.1,0,0.2,0,0.3,0
									C334.1,215.5,334.7,217.2,334.3,219.2z"/>
								<path fill="#B8C973" d="M330.9,214.1l-6,4.7c-0.1,0.1-0.2,0.1-0.4,0.1c-0.1,0-0.2,0-0.2-0.1l-1.6-4.5c0-0.1,0-0.1,0.1-0.2
									c0,0,0.1-0.1,0.1-0.1c0,0,0.1,0,0.2-0.1c2.9-0.8,5.7-0.9,7.8-0.2c0.1,0,0.1,0.1,0.1,0.2C331.1,213.9,331,214,330.9,214.1z"
									/>
								<path fill="#B8C973" d="M325.8,221.2C325.8,221.2,325.8,221.2,325.8,221.2l7.6-0.7c0.1,0,0.2,0,0.2,0.1c0,0.1,0,0.1,0,0.2
									c-1.2,2-3.4,3.9-6,5.3c-0.1,0.1-0.2,0.1-0.3,0.1c-0.1,0-0.2,0-0.2-0.1l-1.6-4.5c0-0.1,0-0.2,0.1-0.3
									C325.6,221.3,325.7,221.3,325.8,221.2z"/>
							</g>
						</g>
					</g>
				</g>
			</g>
			<g>
				<g>
					<g>
						<g>
							<g>
								<g>
									<g>
										<g>
											<g>
												<path fill="#718C30" d="M390.8,223.6c11.2-4.2,22.9-26.3,22.9-26.3s-22.2-9.5-33.5-5.4c-11.2,4.2-13.5,13-10.6,21.7
													C372.6,222.4,379.6,227.8,390.8,223.6z"/>
											</g>
										</g>
									</g>
								</g>
							</g>
						</g>
					</g>
				</g>
				<g>
					<path fill="#697C2C" d="M411.9,198l-53.1,21.2c-0.7,0.3-1.4-0.1-1.7-0.8c-0.3-0.7,0.1-1.5,0.8-1.8c0,0,0,0,0.1,0L411.9,198z"/>
					<path fill="#697C2C" d="M387,217.9l-14-4.8c-0.4-0.1-0.7-0.5-0.6-0.9c0.1-0.4,0.5-0.7,0.9-0.7c0,0,0.1,0,0.1,0L387,217.9z"/>
					<path fill="#697C2C" d="M395.9,211l-11.6-2.3c-0.3-0.1-0.5-0.4-0.4-0.7c0.1-0.3,0.3-0.5,0.6-0.5c0,0,0,0,0,0L395.9,211z"/>
					<path fill="#697C2C" d="M405,205.5l-9.4-1.1c-0.2,0-0.3-0.3-0.3-0.5c0-0.2,0.2-0.4,0.5-0.3c0,0,0,0,0,0L405,205.5z"/>
					<path fill="#697C2C" d="M380.6,198.9l-6.8,14c-0.2,0.4-0.7,0.5-1.1,0.2c-0.3-0.3-0.4-0.8-0.2-1.1c0,0,0-0.1,0.1-0.1
						L380.6,198.9z"/>
					<path fill="#697C2C" d="M391.7,198.4l-6.9,10.2c-0.2,0.3-0.5,0.3-0.8,0.1s-0.3-0.5-0.1-0.8c0,0,0,0,0,0L391.7,198.4z"/>
					<path fill="#697C2C" d="M402.1,196.6l-6.1,7.6c-0.1,0.2-0.4,0.2-0.5,0.1c-0.2-0.1-0.2-0.4-0.1-0.6c0,0,0,0,0,0L402.1,196.6z"/>
				</g>
			</g>
			<g>
				<g>
					<g>
						<g>
							<g>
								<g>
									<g>
										<g>
											<g>
												<path fill="#718C30" d="M231.2,213.5c-4-11.9-24.9-24.2-24.9-24.2s-9,23.5-5.1,35.4c4,11.9,12.3,14.3,20.5,11.2
													C230.1,232.8,235.1,225.4,231.2,213.5z"/>
											</g>
										</g>
									</g>
								</g>
							</g>
						</g>
					</g>
				</g>
				<g>
					<path fill="#697C2C" d="M207,191.3l20,56.1c0.3,0.7-0.1,1.5-0.8,1.8s-1.4-0.1-1.7-0.8c0,0,0,0,0-0.1L207,191.3z"/>
					<path fill="#697C2C" d="M225.9,217.6l-4.5,14.7c-0.1,0.4-0.5,0.7-0.9,0.7c-0.4-0.1-0.7-0.5-0.6-0.9c0,0,0-0.1,0-0.1
						L225.9,217.6z"/>
					<path fill="#697C2C" d="M219.3,208.1l-2.2,12.3c-0.1,0.3-0.3,0.5-0.6,0.5c-0.3-0.1-0.5-0.4-0.4-0.7c0,0,0,0,0-0.1L219.3,208.1z
						"/>
					<path fill="#697C2C" d="M214.1,198.5l-1.1,9.9c0,0.2-0.2,0.4-0.5,0.3c-0.2,0-0.3-0.3-0.3-0.5c0,0,0,0,0,0L214.1,198.5z"/>
					<path fill="#697C2C" d="M207.8,224.3l13.2,7.2c0.4,0.3,0.4,0.8,0.2,1.1c-0.2,0.4-0.7,0.5-1.1,0.2c0,0,0,0-0.1-0.1L207.8,224.3z
						"/>
					<path fill="#697C2C" d="M207.3,212.6l9.6,7.3c0.2,0.2,0.3,0.5,0.1,0.8c-0.2,0.3-0.5,0.3-0.8,0.1c0,0,0,0,0,0L207.3,212.6z"/>
					<path fill="#697C2C" d="M205.7,201.6l7.2,6.4c0.2,0.1,0.2,0.4,0.1,0.6c-0.1,0.2-0.4,0.2-0.5,0.1c0,0,0,0,0,0L205.7,201.6z"/>
				</g>
			</g>
			<g>
				<g>
					<g>
						<g>
							<g>
								<g>
									<g>
										<g>
											<g>
												<path fill="#718C30" d="M196.2,192.6c13.4-5,27.4-31.4,27.4-31.4s-26.5-11.4-40-6.4c-13.4,5-16.1,15.5-12.7,25.9
													C174.4,191.2,182.7,197.6,196.2,192.6z"/>
											</g>
										</g>
									</g>
								</g>
							</g>
						</g>
					</g>
				</g>
				<g>
					<path fill="#697C2C" d="M221.3,162l-63.4,25.3c-0.8,0.3-1.7-0.1-2-1s0.1-1.8,0.9-2.1c0,0,0,0,0.1,0L221.3,162z"/>
					<path fill="#697C2C" d="M191.5,185.9l-16.7-5.7c-0.5-0.1-0.8-0.6-0.8-1.1c0.1-0.5,0.6-0.9,1.1-0.8c0,0,0.1,0,0.1,0L191.5,185.9
						z"/>
					<path fill="#697C2C" d="M202.3,177.6l-13.9-2.7c-0.3-0.1-0.6-0.4-0.5-0.8c0.1-0.4,0.4-0.6,0.8-0.5c0,0,0,0,0.1,0L202.3,177.6z"
						/>
					<path fill="#697C2C" d="M213.1,171.1l-11.2-1.4c-0.2,0-0.4-0.3-0.4-0.6c0-0.3,0.3-0.4,0.5-0.4c0,0,0,0,0,0L213.1,171.1z"/>
					<path fill="#697C2C" d="M183.9,163.1l-8.2,16.7c-0.3,0.4-0.9,0.5-1.3,0.2c-0.4-0.3-0.5-0.9-0.2-1.4c0,0,0-0.1,0.1-0.1
						L183.9,163.1z"/>
					<path fill="#697C2C" d="M197.2,162.5l-8.2,12.2c-0.2,0.3-0.6,0.4-0.9,0.2c-0.3-0.2-0.4-0.6-0.2-0.9c0,0,0,0,0,0L197.2,162.5z"
						/>
					<path fill="#697C2C" d="M209.6,160.4l-7.2,9.1c-0.1,0.2-0.4,0.3-0.6,0.1c-0.2-0.2-0.3-0.5-0.1-0.7c0,0,0,0,0,0L209.6,160.4z"/>
				</g>
			</g>
			<g>
				<g>
					<path fill="#58841F" d="M191.6,211.4c-11.1-5.3-22.4-4.2-25.2,2.4c-2.8,6.6,4,16.2,15.1,21.5c0.1,0.1,0.3,0.1,0.4,0.2
						l10.1-23.8C191.9,211.6,191.7,211.5,191.6,211.4z"/>
					<g>
						<path fill="#CDE580" d="M191.2,212.4c-10.3-4.9-20.7-3.9-23.2,2.2c-2.6,6.1,3.6,14.9,13.9,19.8c0.1,0.1,0.3,0.1,0.4,0.2
							l9.3-22C191.5,212.5,191.4,212.4,191.2,212.4z"/>
					</g>
					<g>
						<path fill="#D6E88B" d="M190.5,214c-8.7-4.1-17.5-3.3-19.7,1.9c-2.2,5.1,3.1,12.7,11.8,16.8c0.1,0.1,0.3,0.1,0.4,0.2l7.9-18.6
							C190.8,214.2,190.6,214.1,190.5,214z"/>
					</g>
					<g>
						<g>
							<g>
								<path fill="#B8C973" d="M178.7,216.9c0.1,0,0.2,0,0.3,0c0.1,0,0.2,0.1,0.3,0.2l5.3,5.2c0.1,0.1,0.1,0.2,0.1,0.3
									c0,0.1-0.1,0.1-0.2,0.1l-7.2-0.6c-0.1,0-0.1,0-0.2-0.1c0,0-0.1,0-0.1-0.1c-0.1-0.1-0.2-0.2-0.2-0.2
									C176.4,219.6,177.1,217.9,178.7,216.9z"/>
								<path fill="#B8C973" d="M177.7,223l7.4,1.1c0.1,0,0.3,0.1,0.3,0.2c0.1,0.1,0.1,0.2,0.1,0.3l-1.9,4.4c0,0.1-0.1,0.1-0.2,0.1
									c-0.1,0-0.1,0-0.2,0c-0.1,0-0.1,0-0.2-0.1c-2.6-1.6-4.6-3.6-5.7-5.7c0-0.1,0-0.2,0-0.2C177.5,223,177.6,223,177.7,223z"/>
								<path fill="#B8C973" d="M186.2,221.8C186.2,221.8,186.1,221.8,186.2,221.8l-5.8-5.2c-0.1-0.1-0.1-0.2-0.1-0.2
									c0-0.1,0.1-0.1,0.1-0.1c2.2-0.5,5-0.2,7.8,0.8c0.1,0,0.2,0.1,0.3,0.2c0.1,0.1,0.1,0.2,0.1,0.2l-1.9,4.4
									c0,0.1-0.1,0.1-0.2,0.1C186.4,221.9,186.3,221.9,186.2,221.8z"/>
							</g>
						</g>
					</g>
				</g>
			</g>
			<g>
				<g>
					<path fill="#C13D1F" d="M185.3,171.3c0,14.8-11.4,26.8-25.4,26.8c-14,0-25.4-12-25.4-26.8H185.3z"/>
					<g>
						<path fill="#E56A5A" d="M159.9,195.6c12.5,0,22.7-10.8,23.1-24.3h-46.2C137.2,184.8,147.4,195.6,159.9,195.6z"/>
					</g>
					<g>
						<path fill="#D8553F" d="M159.9,191.7c10.3,0,18.7-8.9,19.8-20.3h-39.7C141.2,182.8,149.6,191.7,159.9,191.7z"/>
					</g>
					<g>
						<path fill="#E56A5A" d="M141.1,181.9l2.5,3.7l1.6-1.2c-0.9-1.1-1.7-2.4-2.4-3.7L141.1,181.9z"/>
						<path fill="#E56A5A" d="M176.2,185.6l2.3-3.8l-1.5-1c-0.7,1.3-1.5,2.6-2.5,3.7L176.2,185.6z"/>
						<path fill="#E56A5A" d="M155.1,171.3l-12.3,9.2c0.7,1.3,1.5,2.6,2.4,3.7l13.7-10.2l15.6,10.4c0.9-1.1,1.8-2.4,2.5-3.7
							l-14.1-9.4H155.1z"/>
					</g>
					<path fill="#E56A5A" d="M157.3,176.9c0,0.7-2.9,3.1-2.9,4c0,1.2,2.2,2.2,5,2.2s5-1,5-2.2c0-0.9-2.9-3.3-2.9-4
						c0-2.2-0.9-4-2.1-4C158.3,172.9,157.3,174.7,157.3,176.9z"/>
				</g>
				<g>
					<path fill="#E2A15A" d="M159.1,188.7c0-1.3,0.2-2.4,0.4-2.4s0.4,1.1,0.4,2.4c0,1.4-0.2,2.4-0.4,2.4
						C159.2,191.2,159.1,190.1,159.1,188.7z"/>
					<path fill="#E2A15A" d="M153.5,187.3c0.5-1.2,1.1-2.1,1.4-2c0.2,0.1,0,1.2-0.6,2.4c-0.5,1.2-1.1,2.1-1.4,2
						C152.7,189.6,153,188.5,153.5,187.3z"/>
					<path fill="#E2A15A" d="M149,183.4c0.9-1,1.8-1.6,1.9-1.4c0.2,0.2-0.4,1.1-1.3,2.1s-1.8,1.6-1.9,1.4
						C147.5,185.3,148.1,184.3,149,183.4z"/>
					<path fill="#E2A15A" d="M165.4,187.6c-0.6-1.2-0.8-2.3-0.6-2.4c0.2-0.1,0.8,0.8,1.4,2c0.6,1.2,0.8,2.3,0.6,2.4
						C166.5,189.7,165.9,188.8,165.4,187.6z"/>
					<path fill="#E2A15A" d="M169.9,184.7c-0.9-1-1.5-1.9-1.3-2.1s1,0.5,1.9,1.4c0.9,1,1.5,1.9,1.3,2.1
						C171.7,186.2,170.8,185.6,169.9,184.7z"/>
				</g>
				<g>
					<path fill="#E2A15A" d="M144.2,175.7c1.2-0.5,2.2-0.7,2.3-0.5c0.1,0.2-0.8,0.8-2,1.3c-1.2,0.5-2.2,0.7-2.3,0.5
						C142.1,176.9,143,176.3,144.2,175.7z"/>
				</g>
				<g>
					<path fill="#E2A15A" d="M175.7,175.7c-1.2-0.5-2.2-0.7-2.3-0.5c-0.1,0.2,0.8,0.8,2,1.3c1.2,0.5,2.2,0.7,2.3,0.5
						C177.8,176.9,176.9,176.3,175.7,175.7z"/>
				</g>
			</g>
			<g>
				<g>
					<path fill="#C13D1F" d="M250.2,192.6c11,9.1,12.9,26,4.3,37.6c-8.6,11.6-24.6,13.7-35.6,4.5L250.2,192.6z"/>
					<g>
						<path fill="#E56A5A" d="M252.6,228.7c7.7-10.4,6-25.5-3.8-34.2l-28.5,38.4C230.5,240.9,244.8,239.1,252.6,228.7z"/>
					</g>
					<g>
						<path fill="#D8553F" d="M249.6,226.2c6.3-8.5,5-21.1-2.9-29.1l-24.5,33C231.5,236.3,243.3,234.8,249.6,226.2z"/>
					</g>
					<g>
						<path fill="#E56A5A" d="M230.7,235.8l4.3,0.2l0.1-2.1c-1.4,0.1-2.8,0-4.3-0.3L230.7,235.8z"/>
						<path fill="#E56A5A" d="M255.2,209l-1.4-4.3l-1.7,0.6c0.5,1.4,1,2.9,1.2,4.3L255.2,209z"/>
						<path fill="#E56A5A" d="M231.6,217.6l-0.7,16c1.4,0.2,2.9,0.3,4.3,0.3l0.8-17.7l17.3-6.5c-0.3-1.5-0.7-2.9-1.2-4.3l-15.7,5.9
							L231.6,217.6z"/>
					</g>
					<path fill="#E56A5A" d="M237.1,219.2c0.5,0.4,0.5,4.3,1.2,4.9c0.9,0.7,3-0.5,4.7-2.8c1.7-2.3,2.3-4.7,1.4-5.5
						c-0.7-0.6-4.3,0.4-4.8-0.1c-1.7-1.4-3.6-1.7-4.3-0.8C234.6,216,235.4,217.9,237.1,219.2z"/>
				</g>
				<g>
					<path fill="#E2A15A" d="M246.9,225.1c-1-0.8-1.7-1.7-1.5-1.9c0.1-0.2,1.1,0.3,2.1,1.1c1,0.8,1.7,1.7,1.5,1.9
						C248.8,226.5,247.9,226,246.9,225.1z"/>
					<path fill="#E2A15A" d="M242.4,228.9c-0.6-1.2-0.9-2.3-0.7-2.4c0.2-0.1,0.9,0.8,1.4,2c0.6,1.2,0.9,2.3,0.7,2.4
						C243.7,230.9,243,230.1,242.4,228.9z"/>
					<path fill="#E2A15A" d="M236.8,230.2c-0.2-1.3-0.1-2.4,0.2-2.5c0.2,0,0.6,1,0.7,2.4s0.1,2.4-0.2,2.5
						C237.2,232.6,236.9,231.5,236.8,230.2z"/>
					<path fill="#E2A15A" d="M250,219.2c-1.2-0.3-2.2-0.7-2.2-1c0.1-0.2,1.1-0.2,2.4,0.1c1.2,0.3,2.2,0.7,2.2,1
						C252.3,219.5,251.2,219.5,250,219.2z"/>
					<path fill="#E2A15A" d="M250.6,213.6c-1.3,0.2-2.3,0.1-2.3-0.2c0-0.3,1-0.6,2.2-0.7c1.3-0.2,2.3-0.1,2.3,0.2
						C252.9,213.1,251.9,213.4,250.6,213.6z"/>
				</g>
				<g>
					<path fill="#E2A15A" d="M228.1,229.5c0.4-1.3,0.8-2.3,1.1-2.2c0.2,0.1,0.1,1.2-0.2,2.5c-0.4,1.3-0.8,2.3-1.1,2.2
						C227.6,231.9,227.7,230.8,228.1,229.5z"/>
				</g>
				<g>
					<path fill="#E2A15A" d="M247.6,203.2c-1.1,0.7-1.9,1.4-1.8,1.6c0.1,0.2,1.1-0.1,2.2-0.8c1.1-0.7,1.9-1.4,1.8-1.6
						C249.7,202.2,248.7,202.6,247.6,203.2z"/>
				</g>
			</g>
			<path fill="#EAE1BB" d="M152.4,200.2"/>
			<g>
				<g>
					<path fill="#C13D1F" d="M331.3,225.3c0-14.8,11.4-26.8,25.4-26.8s25.4,12,25.4,26.8H331.3z"/>
					<g>
						<path fill="#E56A5A" d="M356.6,201c-12.5,0-22.7,10.8-23.1,24.3h46.2C379.3,211.8,369.1,201,356.6,201z"/>
					</g>
					<g>
						<path fill="#D8553F" d="M356.6,204.9c-10.3,0-18.7,8.9-19.8,20.3h39.7C375.4,213.8,366.9,204.9,356.6,204.9z"/>
					</g>
					<g>
						<path fill="#E56A5A" d="M375.4,214.7l-2.5-3.7l-1.6,1.2c0.9,1.1,1.7,2.4,2.4,3.7L375.4,214.7z"/>
						<path fill="#E56A5A" d="M340.4,211l-2.3,3.8l1.5,1c0.7-1.3,1.5-2.6,2.5-3.7L340.4,211z"/>
						<path fill="#E56A5A" d="M361.4,225.3l12.3-9.2c-0.7-1.3-1.5-2.6-2.4-3.7l-13.7,10.2l-15.6-10.4c-0.9,1.1-1.8,2.4-2.5,3.7
							l14.1,9.4H361.4z"/>
					</g>
					<path fill="#E56A5A" d="M359.2,219.7c0-0.7,2.9-3.1,2.9-4c0-1.2-2.2-2.2-5-2.2c-2.7,0-5,1-5,2.2c0,0.9,2.9,3.3,2.9,4
						c0,2.2,0.9,4,2.1,4C358.3,223.7,359.2,221.9,359.2,219.7z"/>
				</g>
				<g>
					<path fill="#E2A15A" d="M357.5,207.9c0,1.3-0.2,2.4-0.4,2.4s-0.4-1.1-0.4-2.4c0-1.4,0.2-2.4,0.4-2.4S357.5,206.5,357.5,207.9z"
						/>
					<path fill="#E2A15A" d="M363,209.3c-0.5,1.2-1.1,2.1-1.4,2c-0.2-0.1,0-1.2,0.6-2.4c0.5-1.2,1.1-2.1,1.4-2
						C363.8,207,363.5,208.1,363,209.3z"/>
					<path fill="#E2A15A" d="M367.5,213.2c-0.9,1-1.8,1.6-1.9,1.4c-0.2-0.2,0.4-1.1,1.3-2.1c0.9-1,1.8-1.6,1.9-1.4
						S368.4,212.3,367.5,213.2z"/>
					<path fill="#E2A15A" d="M351.2,209c0.6,1.2,0.8,2.3,0.6,2.4c-0.2,0.1-0.8-0.8-1.4-2c-0.6-1.2-0.8-2.3-0.6-2.4
						C350,206.9,350.6,207.8,351.2,209z"/>
					<path fill="#E2A15A" d="M346.6,211.9c0.9,1,1.5,1.9,1.3,2c-0.2,0.2-1-0.4-1.9-1.4c-0.9-1-1.5-1.9-1.3-2.1
						C344.8,210.3,345.7,211,346.6,211.9z"/>
				</g>
				<g>
					<path fill="#E2A15A" d="M372.3,220.9c-1.2,0.5-2.2,0.7-2.3,0.5c-0.1-0.2,0.8-0.8,2-1.3c1.2-0.5,2.2-0.7,2.3-0.5
						C374.4,219.7,373.5,220.3,372.3,220.9z"/>
				</g>
				<g>
					<path fill="#E2A15A" d="M340.8,220.9c1.2,0.5,2.2,0.7,2.3,0.5c0.1-0.2-0.8-0.8-2-1.3c-1.2-0.5-2.2-0.7-2.3-0.5
						C338.7,219.7,339.6,220.3,340.8,220.9z"/>
				</g>
			</g>
			<g>
				<g>
					<path fill="#C13D1F" d="M310.5,160.7c-6.2,13.3-21.4,18.8-33.9,12.3s-17.8-22.6-11.6-35.9L310.5,160.7z"/>
					<g>
						<path fill="#E56A5A" d="M277.6,170.7c11.2,5.8,24.9,0.9,30.8-11.1L267,138.2C261.7,150.4,266.4,164.9,277.6,170.7z"/>
					</g>
					<g>
						<path fill="#D8553F" d="M279.2,167.2c9.2,4.8,20.5,0.7,26.3-9l-35.6-18.5C266.1,150.5,270,162.4,279.2,167.2z"/>
					</g>
					<g>
						<path fill="#E56A5A" d="M266.4,149.6l0.7,4.5l2-0.3c-0.3-1.4-0.6-2.9-0.6-4.5L266.4,149.6z"/>
						<path fill="#E56A5A" d="M296.4,169.3l3.6-2.4l-1-1.6c-1.2,0.9-2.4,1.6-3.8,2.2L296.4,169.3z"/>
						<path fill="#E56A5A" d="M283.4,146.7l-14.9,2.6c0.1,1.5,0.3,3,0.6,4.5l16.5-2.8l9.6,16.6c1.3-0.6,2.6-1.3,3.8-2.2l-8.7-15
							L283.4,146.7z"/>
					</g>
					<path fill="#E56A5A" d="M283.1,152.7c-0.3,0.7-3.9,1.4-4.3,2.3c-0.5,1.1,1.1,3,3.6,4.3c2.5,1.3,4.9,1.4,5.4,0.3
						c0.4-0.8-1.2-4.3-0.9-5c0.9-2,0.8-4.1-0.2-4.6C285.6,149.5,284,150.7,283.1,152.7z"/>
				</g>
				<g>
					<path fill="#E2A15A" d="M279.7,164.1c0.6-1.2,1.2-2.1,1.4-2s-0.1,1.2-0.6,2.4c-0.6,1.2-1.2,2.1-1.4,2S279.1,165.3,279.7,164.1z
						"/>
					<path fill="#E2A15A" d="M275.3,160.3c1-0.9,1.9-1.4,2.1-1.2c0.2,0.2-0.5,1-1.5,1.9c-1,0.9-1.9,1.4-2.1,1.2
						S274.3,161.1,275.3,160.3z"/>
					<path fill="#E2A15A" d="M272.9,154.7c1.2-0.4,2.2-0.6,2.3-0.4c0.1,0.2-0.8,0.8-2,1.2c-1.2,0.4-2.2,0.6-2.3,0.4
						C270.8,155.6,271.7,155.1,272.9,154.7z"/>
					<ellipse fill="#E2A15A" cx="286.3" cy="166.1" rx="0.4" ry="2.4"/>
					<path fill="#E2A15A" d="M291.1,165.5c-0.4-1.3-0.6-2.4-0.3-2.5c0.2-0.1,0.7,0.9,1.2,2.2c0.4,1.3,0.6,2.4,0.3,2.5
						C292.1,167.8,291.6,166.8,291.1,165.5z"/>
				</g>
				<g>
					<path fill="#E2A15A" d="M271.8,145.5c1.3,0.1,2.3,0.4,2.3,0.6c0,0.3-1.1,0.4-2.3,0.3c-1.3-0.1-2.3-0.4-2.3-0.6
						C269.4,145.6,270.5,145.4,271.8,145.5z"/>
				</g>
				<g>
					<path fill="#E2A15A" d="M300.1,160.2c-0.8-1-1.7-1.7-1.9-1.5c-0.2,0.2,0.4,1.1,1.2,2.1c0.8,1,1.7,1.7,1.9,1.5
						C301.5,162.2,300.9,161.2,300.1,160.2z"/>
				</g>
			</g>
			<g>
				<g>
					<g>
						<g>
							<g>
								<g>
									<g>
										<g>
											<path fill="#F9EBB4" d="M408.2,207.9c0,0-48.4,20-151.1,20c-102.7,0-151.1-20-151.1-20c0,88.2,39.7,159.7,151.1,159.7
												S408.2,296.1,408.2,207.9z"/>
										</g>
									</g>
								</g>
							</g>
						</g>
					</g>
				</g>
			</g>
			<g>
				<path fill="#EAD063" d="M406.7,235.9c1-9.1,1.4-18.4,1.4-28c0,0-48.4,20-151.1,20c-102.7,0-151.1-20-151.1-20
					c0,9.5,0.5,18.9,1.4,28c15.8,5.2,64.6,18.6,149.6,18.6C342.1,254.5,391,241.1,406.7,235.9z"/>
			</g>
			<g>
				<g>
					<path fill="#58841F" d="M310.2,179.4c11.4-4.6,18.7-13.8,16.2-20.5c-2.4-6.7-13.6-8.5-25-3.9c-0.2,0.1-0.3,0.1-0.4,0.2
						l8.8,24.4C309.9,179.5,310,179.5,310.2,179.4z"/>
					<g>
						<path fill="#CDE580" d="M309.8,178.5c10.5-4.2,17.2-12.7,15-18.9c-2.2-6.2-12.6-7.8-23.1-3.6c-0.2,0.1-0.3,0.1-0.4,0.2
							l8.1,22.5C309.5,178.6,309.7,178.5,309.8,178.5z"/>
					</g>
					<g>
						<path fill="#D6E88B" d="M309.2,176.7c8.9-3.6,14.6-10.8,12.7-16c-1.9-5.3-10.7-6.6-19.6-3.1c-0.2,0.1-0.3,0.1-0.4,0.2
							l6.9,19.1C308.9,176.9,309.1,176.8,309.2,176.7z"/>
					</g>
					<g>
						<g>
							<g>
								<path fill="#B8C973" d="M315.6,165.9c0,0.1-0.1,0.2-0.2,0.2s-0.2,0.1-0.3,0.1l-7.2,0.3c-0.1,0-0.2,0-0.2-0.1
									c0-0.1,0-0.2,0.1-0.3l5.5-4.9c0.1,0,0.1-0.1,0.2-0.1c0,0,0.1,0,0.1,0c0.1,0,0.2,0,0.3,0C315.4,162.3,316.1,164,315.6,165.9z
									"/>
								<path fill="#B8C973" d="M312.2,160.9l-6,4.7c-0.1,0.1-0.2,0.1-0.4,0.1c-0.1,0-0.2,0-0.2-0.1l-1.6-4.5c0-0.1,0-0.1,0.1-0.2
									c0,0,0.1-0.1,0.1-0.1c0,0,0.1,0,0.2-0.1c2.9-0.8,5.7-0.9,7.8-0.2c0.1,0,0.1,0.1,0.1,0.2
									C312.4,160.7,312.3,160.8,312.2,160.9z"/>
								<path fill="#B8C973" d="M307.1,168C307.1,168,307.1,168,307.1,168l7.6-0.7c0.1,0,0.2,0,0.2,0.1c0,0.1,0,0.1,0,0.2
									c-1.2,2-3.4,3.9-6,5.3c-0.1,0.1-0.2,0.1-0.3,0.1c-0.1,0-0.2,0-0.2-0.1l-1.6-4.5c0-0.1,0-0.2,0.1-0.3
									C306.9,168.1,307,168,307.1,168z"/>
							</g>
						</g>
					</g>
				</g>
			</g>
		</g>
		<path fill="#F9EBB4" d="M319.4,367.8c0,7.6-27.9,7-62.3,7s-62.3,0.5-62.3-7c0-7.6,27.9-20.4,62.3-20.4S319.4,360.2,319.4,367.8z"
			/>
	</g>
</g>
</svg>
