<?xml version="1.0" encoding="utf-8"?>
<!-- Generator: Adobe Illustrator 16.0.0, SVG Export Plug-In . SVG Version: 6.00 Build 0)  -->
<!DOCTYPE svg PUBLIC "-//W3C//DTD SVG 1.1//EN" "http://www.w3.org/Graphics/SVG/1.1/DTD/svg11.dtd">
<svg version="1.1" id="Layer_1" xmlns="http://www.w3.org/2000/svg" xmlns:xlink="http://www.w3.org/1999/xlink" x="0px" y="0px"
	 width="512px" height="512px" viewBox="0 0 512 512" enable-background="new 0 0 512 512" xml:space="preserve">
<g>
	<path fill="#5B4F3F" d="M504.1,256c0,137-111.1,248.1-248.1,248.1C119,504.1,7.9,393,7.9,256C7.9,119,119,7.9,256,7.9
		C393,7.9,504.1,119,504.1,256"/>
	<path fill="#F1F1F2" d="M417,256c0,88.9-72.1,161-161,161c-88.9,0-161-72.1-161-161c0-88.9,72.1-161,161-161
		C344.9,95,417,167.1,417,256"/>
	<path fill="#929497" d="M333.6,256c0,42.9-34.8,77.6-77.6,77.6c-42.9,0-77.6-34.8-77.6-77.6c0-42.9,34.8-77.6,77.6-77.6
		C298.9,178.4,333.6,213.1,333.6,256"/>
	<path fill="#929497" d="M256,406.9c-40.3,0-78.2-15.7-106.7-44.2c-28.5-28.5-44.2-66.4-44.2-106.7s15.7-78.2,44.2-106.7
		C177.8,120.7,215.7,105,256,105s78.2,15.7,106.7,44.2c28.5,28.5,44.2,66.4,44.2,106.7s-15.7,78.2-44.2,106.7
		C334.2,391.2,296.3,406.9,256,406.9 M256,113.3c-78.7,0-142.7,64-142.7,142.7c0,78.7,64,142.7,142.7,142.7s142.7-64,142.7-142.7
		C398.7,177.3,334.7,113.3,256,113.3"/>
	<path fill="#37B34A" d="M234.5,199.6c0.1,0.9,0.1,1.9,0.1,2.8C234.6,201,234.5,200.1,234.5,199.6"/>
	<path fill="#1598C5" d="M316,272.3c0,0,9.4-30.5-27.9-71.2c-37.2-40.8-79.4-34.9-79.4-34.9s-14.7,37.5,25.2,78
		C273.8,284.6,316,272.3,316,272.3"/>
	<path fill="#1598C5" d="M368.5,276.7c0,0-40.5-14.7-52.5-4.4c-12,10.3,5.6,50.1,5.6,50.1s15.5-26.7,14.7-29.3
		C335.3,290.5,361.4,286.1,368.5,276.7"/>
	<path fill="#3FB6D6" d="M264.1,181.7c0,0,1.5,12.6-15,29c-16.4,16.4-29.3,15.2-29.3,15.2s-21.7-33.4-11.1-59.8
		C233,162.9,264.1,181.7,264.1,181.7"/>
	<path fill="#1598C5" d="M267.6,320.7c0,0,9.4-30.5-27.9-71.2c-37.2-40.8-79.4-34.9-79.4-34.9s-14.7,37.5,25.2,78
		C225.4,333,267.6,320.7,267.6,320.7"/>
	<path fill="#1598C5" d="M320.1,325.1c0,0-40.5-14.7-52.5-4.4c-12,10.3,5.6,50.1,5.6,50.1s15.5-26.7,14.7-29.3
		C287,338.8,313.1,334.4,320.1,325.1"/>
	<path fill="#3FB6D6" d="M215.7,230.1c0,0,1.5,12.6-15,29c-16.4,16.4-29.3,15.2-29.3,15.2s-21.7-33.4-11.1-59.8
		C184.7,211.3,215.7,230.1,215.7,230.1"/>
	<path fill="#26A9E0" d="M278.6,283.1c0,0,9.4-30.5-27.8-71.3c-37.2-40.7-79.5-34.9-79.5-34.9s-14.7,37.5,25.2,78
		C236.4,295.4,278.6,283.1,278.6,283.1"/>
	<path fill="#26A9E0" d="M331.1,287.5c0,0-40.5-14.7-52.5-4.4c-12,10.3,5.6,50.1,5.6,50.1s15.5-26.7,14.7-29.3
		C298,301.3,324.1,296.9,331.1,287.5"/>
	<path fill="#55C9F3" d="M226.7,192.5c0,0,1.5,12.6-15,29c-16.4,16.4-29.3,15.2-29.3,15.2s-21.7-33.4-11.1-59.8
		C195.6,173.7,226.7,192.5,226.7,192.5"/>
	<path fill="#FFF100" d="M383.3,203.6c0,16.8-13.6,30.4-30.4,30.4c-16.8,0-30.4-13.6-30.4-30.4c0-16.8,13.6-30.4,30.4-30.4
		C369.7,173.2,383.3,186.8,383.3,203.6"/>
	<path fill="#F1F1F2" d="M381.7,203.6c0,15.9-12.9,28.8-28.8,28.8s-28.8-12.9-28.8-28.8s12.9-28.8,28.8-28.8
		S381.7,187.7,381.7,203.6"/>
	<path fill="#8BC53F" d="M333.2,184.6c-4.6,4.8-7.5,11.3-7.7,18.5h26.1L333.2,184.6z"/>
	<path fill="#8BC53F" d="M333.9,223.2c4.8,4.6,11.3,7.5,18.5,7.7v-26.1L333.9,223.2z"/>
	<path fill="#8BC53F" d="M352.4,176.2c-7.2,0.1-13.7,3-18.5,7.7l18.5,18.5V176.2z"/>
	<path fill="#8BC53F" d="M371.9,183.9c-4.8-4.6-11.3-7.5-18.5-7.7v26.1L371.9,183.9z"/>
	<path fill="#8BC53F" d="M380.2,203.1c-0.1-7.2-3-13.7-7.7-18.5l-18.5,18.5H380.2z"/>
	<path fill="#8BC53F" d="M325.6,204c0.1,7.2,3,13.7,7.7,18.5l18.5-18.5H325.6z"/>
	<path fill="#8BC53F" d="M354.1,204l18.5,18.5c4.6-4.8,7.5-11.3,7.7-18.5H354.1z"/>
	<path fill="#8BC53F" d="M353.4,230.9c7.2-0.1,13.7-3,18.5-7.7l-18.5-18.5V230.9z"/>
	<path fill="#FFF100" d="M377.8,233.9c0,16.8-13.6,30.4-30.4,30.4c-16.8,0-30.4-13.6-30.4-30.4c0-16.8,13.6-30.4,30.4-30.4
		C364.2,203.6,377.8,217.2,377.8,233.9"/>
	<path fill="#F1F1F2" d="M376.2,233.9c0,15.9-12.9,28.8-28.8,28.8s-28.8-12.9-28.8-28.8s12.9-28.8,28.8-28.8S376.2,218,376.2,233.9"
		/>
	<path fill="#8BC53F" d="M327.8,215c-4.6,4.8-7.5,11.3-7.7,18.5h26.2L327.8,215z"/>
	<path fill="#8BC53F" d="M328.5,253.6c4.8,4.6,11.3,7.5,18.5,7.7v-26.2L328.5,253.6z"/>
	<path fill="#8BC53F" d="M346.9,206.6c-7.2,0.1-13.7,3-18.5,7.7l18.5,18.5V206.6z"/>
	<path fill="#8BC53F" d="M366.4,214.3c-4.8-4.6-11.3-7.5-18.5-7.7v26.1L366.4,214.3z"/>
	<path fill="#8BC53F" d="M374.7,233.4c-0.1-7.2-3-13.7-7.7-18.5l-18.5,18.5H374.7z"/>
	<path fill="#8BC53F" d="M320.1,234.4c0.1,7.2,3,13.7,7.7,18.5l18.5-18.5H320.1z"/>
	<path fill="#8BC53F" d="M348.6,234.4l18.5,18.5c4.6-4.8,7.5-11.3,7.7-18.5H348.6z"/>
	<path fill="#8BC53F" d="M347.9,261.2c7.2-0.1,13.7-3,18.5-7.7l-18.5-18.5V261.2z"/>
</g>
</svg>
