<?xml version="1.0" encoding="utf-8"?>
<!-- Generator: Adobe Illustrator 16.0.0, SVG Export Plug-In . SVG Version: 6.00 Build 0)  -->
<!DOCTYPE svg PUBLIC "-//W3C//DTD SVG 1.1//EN" "http://www.w3.org/Graphics/SVG/1.1/DTD/svg11.dtd">
<svg version="1.1" id="Layer_1" xmlns="http://www.w3.org/2000/svg" xmlns:xlink="http://www.w3.org/1999/xlink" x="0px" y="0px"
	 width="512px" height="512px" viewBox="0 0 512 512" enable-background="new 0 0 512 512" xml:space="preserve">
<g>
	<path fill="#D84456" d="M381.5,145.5l-46,38.7c7.2,9.3,12.4,18.1,15.9,26.4l56.5-17.9C402.7,172,392.9,156.7,381.5,145.5"/>
	<path fill="#D84456" d="M389,286c9.8-11.6,15.4-24.2,18.7-35.5l-50.2-13.7c0.2,9.5-1.7,18-5,25.7L389,286z"/>
	<g>
		<path fill="#25B7D3" d="M504.1,256c0,137-111.1,248.1-248.1,248.1C119,504.1,7.9,393,7.9,256C7.9,119,119,7.9,256,7.9
			C393,7.9,504.1,119,504.1,256"/>
		<path fill="#BE1E2D" d="M412,218.5c-6.3-99.3-99.3-103.9-99.3-103.9l-89,12c0.4,0.9,0.9,1.7,1.4,2.5c-5.2,0.2-12.5,0.4-21.3,0.1
			c-8.9-0.4-19.3-1.2-30.1-3.7c-5.4-1.3-10.9-3-16.1-5.4c-5.2-2.4-10.1-5.8-13.6-10.4c-1.8-2.2-3-4.8-4-7.5
			c-0.3-1.4-0.7-2.8-0.9-4.2l-0.2-2.1l-0.1-1.1c0-0.3,0-0.7,0-1.1c0.1-1.5,0-3,0.2-4.4l0.2-2.1c0.1-0.7,0.3-1.4,0.4-2.1
			c0.5-2.8,1.5-5.4,2.6-7.9c2.4-4.9,5.9-9.1,10-12.2c4-3.1,8.4-5.3,12.6-6.8c8.4-3.1,15.9-4,21.1-4.4c5.2-0.4,8.2-0.2,8.2-0.2
			s-3-0.2-8.3,0c-5.2,0.3-12.8,1-21.4,3.9c-4.3,1.5-8.8,3.5-13,6.6c-4.3,3-8.1,7.3-10.7,12.4c-1.2,2.6-2.3,5.3-3,8.2
			c-0.2,0.7-0.4,1.4-0.5,2.2l-0.3,2.2c-0.3,1.5-0.3,3-0.4,4.4c0,0.4-0.1,0.7,0,1.2l0.1,1.1l0.1,2.3c0.1,1.5,0.6,3.1,0.9,4.6
			c1,3,2.2,5.9,4.2,8.4c3.7,5.1,8.9,8.8,14.3,11.5c5.4,2.7,11,4.6,16.6,6.1c11.1,2.9,21.7,4,30.7,4.7c9.1,0.6,16.6,0.6,21.9,0.5
			c1,0,1.8,0,2.6-0.1c30.7,45.1,103.4,45.1,103.4,45.1c4.6,5.5,8.5,10.7,11.7,15.8c-0.7,0.1-1.5,0.2-2.3,0.3
			c-4.4,0.6-10.2,1.6-15.9,3c-5.7,1.4-11.4,3.3-15.2,5.5c-1,0.6-1.8,1.1-2.5,1.7c-0.7,0.6-1.3,1.2-1.7,1.6c-0.4,0.5-0.7,0.9-0.8,1.3
			c-0.1,0.3-0.2,0.5-0.2,0.5s0.1-0.1,0.3-0.4c0.2-0.3,0.5-0.7,1-1.1c0.5-0.4,1-0.9,1.8-1.3c0.7-0.5,1.6-0.9,2.6-1.3
			c4-1.6,9.6-2.6,15.3-3.1c5.7-0.5,11.4-0.7,15.7-0.6c2.2,0,3.9,0.1,5.2,0.1c0.1,0,0.2,0,0.4,0c1,1.9,2,3.7,2.9,5.6
			c-1.3,0.1-2.8,0.3-4.6,0.5c-4.9,0.6-11.5,1.6-18,3c-6.5,1.4-13,3.2-17.5,5.4c-1.1,0.6-2.1,1.1-3,1.7c-0.8,0.6-1.5,1.2-2,1.7
			c-0.5,0.6-0.8,1-1,1.4c-0.2,0.3-0.3,0.5-0.3,0.5s0.1-0.2,0.3-0.5c0.2-0.3,0.6-0.7,1.1-1.2c0.6-0.4,1.3-0.9,2.1-1.4
			c0.9-0.5,1.9-0.9,3-1.3c4.6-1.6,11.1-2.5,17.5-3c6.5-0.5,13-0.6,17.9-0.6c2.4,0,4.5,0.1,5.9,0.1c0.5,0,0.8,0,1.2,0
			c2.2,5.8,3.7,11.4,4.4,16.7c-1.1-0.2-2.5-0.5-4-0.8c-4.9-0.9-11.5-2-18.1-2.7c-6.6-0.7-13.3-0.9-18.3-0.2
			c-1.2,0.2-2.4,0.4-3.3,0.7c-1,0.3-1.8,0.7-2.4,1c-0.6,0.4-1.1,0.7-1.4,1c-0.3,0.3-0.4,0.4-0.4,0.4s0.2-0.1,0.5-0.3
			c0.3-0.3,0.8-0.5,1.4-0.8c0.7-0.2,1.5-0.5,2.5-0.7c1-0.2,2.1-0.2,3.3-0.3c4.9-0.1,11.3,1,17.6,2.5c6.3,1.5,12.6,3.4,17.2,4.9
			c2.3,0.8,4.2,1.4,5.6,1.9c0.1,0,0.2,0.1,0.4,0.1c0.1,2.9,0,5.8-0.4,8.6c-1.1-0.4-2.4-0.9-4-1.4c-4.7-1.6-11-3.7-17.5-5.3
			c-6.4-1.6-13-2.9-18-2.9c-1.3,0-2.4,0.1-3.4,0.2c-1,0.1-1.9,0.4-2.6,0.6c-0.7,0.3-1.2,0.5-1.5,0.8c-0.3,0.2-0.5,0.4-0.5,0.4
			s0.2-0.1,0.5-0.3c0.3-0.2,0.9-0.4,1.5-0.6c0.7-0.1,1.5-0.3,2.5-0.3s2.1,0.1,3.3,0.2c4.8,0.6,11,2.7,17.1,5.1
			c6,2.4,11.9,5.2,16.3,7.4c2.1,1,3.8,2,5.1,2.6c-0.8,3.5-1.9,6.8-3.2,10c-0.8-0.5-1.8-1.1-2.8-1.7c-4.3-2.6-10-5.9-16-8.8
			c-6-2.9-12.2-5.5-17.1-6.6c-1.2-0.2-2.4-0.4-3.4-0.5c-1-0.1-1.9,0-2.6,0.1c-0.7,0.2-1.3,0.3-1.6,0.5c-0.4,0.2-0.5,0.2-0.5,0.2
			s0.2-0.1,0.6-0.2c0.4-0.1,0.9-0.2,1.6-0.3c0.7,0,1.6,0.1,2.5,0.2c1,0.2,2,0.5,3.2,0.9c4.6,1.6,10.2,4.9,15.7,8.5
			c5.4,3.6,10.6,7.6,14.4,10.6c1.3,1,2.4,1.9,3.3,2.7c-1.9,3.6-4.1,6.9-6.5,10c-0.6-0.5-1.3-1.1-2-1.7c-3.8-3.3-8.9-7.5-14.2-11.5
			c-5.3-3.9-11-7.6-15.7-9.4c-1.2-0.5-2.3-0.8-3.2-1.1c-1-0.2-1.9-0.3-2.6-0.4c-0.7,0-1.3,0.1-1.7,0.2c-0.4,0.1-0.6,0.1-0.6,0.1
			s0.2,0,0.6-0.1c0.4-0.1,0.9,0,1.6,0c0.7,0.1,1.5,0.3,2.5,0.7c0.9,0.4,1.9,0.8,3,1.4c4.2,2.4,9.2,6.6,13.9,11.1
			c4.7,4.5,9.1,9.3,12.3,13c0.8,0.9,1.5,1.7,2.1,2.4c-15.7,17.8-36.1,26.9-36.1,26.9l-70.8-35.9c1.1,34.8,26.8,37.7,26.8,37.7
			c-36.5,0.6-41.6,17.7-41.6,17.7c8-5.1,99.8-7.4,99.8-7.4C417.7,308.1,412,218.5,412,218.5"/>
		<path fill="#D84456" d="M359.2,309.2l-25.3-20.8c-8.1,7.8-16.7,13.4-22.6,16.8l7.2,15.9C334.6,319,348,314.7,359.2,309.2"/>
		<path fill="#231F20" d="M303.9,127.2c0,4.3-3.5,7.7-7.7,7.7s-7.7-3.5-7.7-7.7c0-4.3,3.4-7.7,7.7-7.7S303.9,123,303.9,127.2"/>
		<path fill="#BE1E2D" d="M100,293.5c6.3,99.3,99.3,103.9,99.3,103.9l89-12c-0.4-0.9-0.9-1.7-1.4-2.5c5.2-0.2,12.5-0.4,21.3-0.1
			c8.9,0.4,19.3,1.2,30.1,3.7c5.4,1.3,10.9,3,16.1,5.4c5.2,2.4,10.1,5.8,13.6,10.4c1.8,2.2,3,4.8,4,7.5c0.3,1.4,0.7,2.8,0.9,4.2
			l0.2,2.1l0.1,1.1c0,0.3,0,0.7,0,1.1c-0.1,1.5,0,3-0.2,4.4l-0.2,2.1c-0.1,0.7-0.3,1.4-0.4,2.1c-0.5,2.8-1.5,5.4-2.6,7.9
			c-2.4,4.9-5.9,9.1-10,12.2c-4,3.1-8.4,5.3-12.6,6.8c-8.4,3.1-15.9,4-21.1,4.4c-5.2,0.4-8.2,0.2-8.2,0.2s3,0.2,8.3,0
			c5.2-0.3,12.8-1,21.4-3.9c4.3-1.5,8.8-3.5,13-6.6c4.3-3,8.1-7.3,10.7-12.4c1.2-2.6,2.3-5.3,2.9-8.2c0.2-0.7,0.4-1.4,0.5-2.2
			l0.3-2.2c0.3-1.5,0.2-3,0.3-4.4c0-0.4,0.1-0.7,0-1.2l-0.1-1.2l-0.1-2.3c-0.1-1.5-0.5-3.1-0.9-4.6c-1-3-2.2-5.9-4.2-8.4
			c-3.7-5.1-8.9-8.8-14.3-11.6c-5.4-2.7-11-4.6-16.6-6.1c-11.1-2.9-21.7-4-30.7-4.7c-9.1-0.6-16.6-0.6-21.9-0.5c-1,0-1.8,0-2.6,0.1
			c-30.7-45.1-103.4-45.1-103.4-45.1c-4.6-5.5-8.5-10.7-11.7-15.8c0.7-0.1,1.5-0.2,2.3-0.3c4.4-0.6,10.2-1.6,15.9-3
			c5.7-1.4,11.4-3.3,15.2-5.5c1-0.6,1.8-1.1,2.5-1.7c0.7-0.6,1.2-1.2,1.6-1.6c0.4-0.5,0.7-0.9,0.8-1.3c0.1-0.3,0.2-0.5,0.2-0.5
			s-0.1,0.1-0.3,0.4c-0.2,0.3-0.5,0.7-0.9,1.1c-0.5,0.4-1.1,0.9-1.8,1.3c-0.7,0.5-1.6,0.9-2.6,1.3c-4,1.6-9.6,2.6-15.3,3.1
			c-5.7,0.5-11.4,0.7-15.7,0.6c-2.1,0-3.9-0.1-5.2-0.1c-0.1,0-0.2,0-0.4,0c-1-1.9-2-3.7-2.9-5.6c1.3-0.1,2.8-0.3,4.6-0.5
			c5-0.6,11.5-1.6,18-3c6.5-1.4,12.9-3.2,17.5-5.4c1.1-0.6,2.1-1.1,3-1.7c0.8-0.6,1.5-1.2,2-1.7c0.5-0.6,0.8-1,1-1.4
			c0.2-0.3,0.3-0.5,0.3-0.5s-0.1,0.2-0.3,0.5c-0.2,0.3-0.6,0.7-1.1,1.2c-0.6,0.4-1.3,0.9-2.1,1.4c-0.9,0.5-1.9,0.9-3,1.3
			c-4.6,1.6-11.1,2.5-17.5,3c-6.5,0.5-13,0.6-17.9,0.6c-2.4,0-4.5-0.1-5.9-0.1c-0.5,0-0.8,0-1.2,0c-2.2-5.8-3.7-11.4-4.4-16.7
			c1.1,0.2,2.5,0.5,4,0.8c4.9,0.9,11.5,2,18.1,2.7s13.3,0.9,18.3,0.2c1.2-0.2,2.4-0.4,3.3-0.7c1-0.3,1.8-0.7,2.4-1
			c0.6-0.4,1.1-0.7,1.4-1c0.3-0.3,0.4-0.4,0.4-0.4s-0.2,0.1-0.5,0.3c-0.3,0.3-0.8,0.5-1.4,0.8c-0.7,0.2-1.5,0.5-2.4,0.7
			c-1,0.2-2.1,0.2-3.3,0.3c-4.9,0.1-11.3-1-17.6-2.5c-6.3-1.5-12.6-3.4-17.2-4.9c-2.3-0.8-4.2-1.4-5.6-1.9c-0.1,0-0.2-0.1-0.4-0.1
			c-0.1-2.9,0-5.8,0.4-8.6c1.1,0.4,2.4,0.9,4,1.4c4.7,1.6,11,3.7,17.5,5.3c6.4,1.6,13,2.9,18.1,2.9c1.3,0,2.4-0.1,3.4-0.2
			c1-0.1,1.9-0.4,2.6-0.6c0.7-0.3,1.2-0.5,1.5-0.8c0.3-0.2,0.5-0.3,0.5-0.3s-0.2,0.1-0.5,0.3c-0.3,0.2-0.9,0.4-1.5,0.6
			c-0.7,0.1-1.6,0.3-2.5,0.3c-1,0-2.1-0.1-3.3-0.2c-4.8-0.6-11-2.7-17-5.1c-6-2.4-11.9-5.2-16.3-7.4c-2.1-1-3.8-2-5.1-2.6
			c0.8-3.5,1.9-6.8,3.2-10c0.8,0.5,1.8,1.1,2.8,1.7c4.3,2.6,10,5.9,16,8.8c6,2.9,12.2,5.5,17.1,6.6c1.2,0.2,2.4,0.4,3.4,0.5
			c1,0.1,1.9,0,2.6-0.1c0.7-0.2,1.3-0.3,1.6-0.5c0.4-0.2,0.5-0.2,0.5-0.2s-0.2,0.1-0.6,0.2c-0.3,0.1-0.9,0.2-1.6,0.3
			c-0.7,0-1.6-0.1-2.5-0.2c-1-0.2-2-0.5-3.2-0.9c-4.6-1.6-10.2-4.9-15.7-8.5c-5.4-3.6-10.6-7.6-14.4-10.6c-1.3-1-2.4-1.9-3.4-2.7
			c1.9-3.6,4.1-6.9,6.5-10c0.6,0.5,1.2,1.1,2,1.7c3.8,3.3,8.9,7.5,14.2,11.5c5.4,3.9,11,7.6,15.7,9.4c1.2,0.5,2.3,0.8,3.2,1.1
			c1,0.2,1.9,0.3,2.6,0.4c0.7,0,1.3-0.1,1.7-0.2c0.4-0.1,0.6-0.1,0.6-0.1s-0.2,0-0.6,0.1c-0.4,0.1-0.9,0-1.6,0
			c-0.7-0.1-1.5-0.3-2.5-0.7c-0.9-0.4-1.9-0.8-3-1.4c-4.2-2.4-9.2-6.6-13.9-11.1c-4.7-4.5-9.1-9.3-12.3-13c-0.8-0.9-1.5-1.7-2.1-2.4
			c15.7-17.8,36.1-26.9,36.1-26.9l70.8,35.9c-1.1-34.8-26.8-37.7-26.8-37.7c36.5-0.6,41.7-17.7,41.7-17.7c-8,5.1-99.9,7.4-99.9,7.4
			C94.3,203.9,100,293.5,100,293.5"/>
		<path fill="#D84456" d="M130.5,366.5l46-38.7c-7.2-9.3-12.4-18.1-15.9-26.4L104,319.3C109.3,340,119.1,355.3,130.5,366.5"/>
		<path fill="#D84456" d="M123,226c-9.8,11.6-15.4,24.2-18.7,35.5l50.2,13.7c-0.2-9.5,1.7-18,5.1-25.7L123,226z"/>
		<path fill="#D84456" d="M152.8,202.8l25.3,20.8c8.1-7.8,16.7-13.4,22.6-16.8l-7.2-15.9C177.4,193,163.9,197.3,152.8,202.8"/>
		<path fill="#231F20" d="M208.1,384.8c0-4.3,3.5-7.7,7.7-7.7c4.2,0,7.7,3.5,7.7,7.7s-3.4,7.7-7.7,7.7
			C211.6,392.5,208.1,389,208.1,384.8"/>
	</g>
</g>
</svg>
