<?xml version="1.0" encoding="utf-8"?>
<!-- Generator: Adobe Illustrator 16.0.0, SVG Export Plug-In . SVG Version: 6.00 Build 0)  -->
<!DOCTYPE svg PUBLIC "-//W3C//DTD SVG 1.1//EN" "http://www.w3.org/Graphics/SVG/1.1/DTD/svg11.dtd">
<svg version="1.1" id="Layer_1" xmlns="http://www.w3.org/2000/svg" xmlns:xlink="http://www.w3.org/1999/xlink" x="0px" y="0px"
	 width="512px" height="512px" viewBox="0 0 512 512" enable-background="new 0 0 512 512" xml:space="preserve">
<g>
	<path fill="#FABC3D" d="M504.1,256c0,137-111.1,248.1-248.1,248.1C119,504.1,7.9,393,7.9,256S119,7.9,256,7.9
		C393,7.9,504.1,119,504.1,256"/>
	<path fill="#3B2314" d="M405,256c0,82.3-66.7,149-149,149c-82.3,0-149-66.7-149-149c0-82.3,66.7-149,149-149
		C338.3,107,405,173.7,405,256"/>
	<path fill="#FFFFFF" d="M388.3,256c0,73-59.2,132.3-132.3,132.3S123.7,329,123.7,256S183,123.7,256,123.7S388.3,183,388.3,256"/>
	<path fill="#37B34A" d="M194.8,238.7c0,0,68.3-19.6,84.9,60.6C279.7,299.2,192.1,316,194.8,238.7"/>
	<path fill="#37B34A" d="M186.9,279.6c0,0,57.1-42.2,100.7,27.1C287.6,306.7,211.3,353.1,186.9,279.6"/>
	<path fill="#37B34A" d="M194.8,320.1c0,0,41.3-57.8,104.2-5.3C299,314.7,240.8,382.3,194.8,320.1"/>
	<path fill="#EC1C24" d="M300.9,280c0,20.3-16.5,36.8-36.8,36.8c-20.3,0-36.8-16.5-36.8-36.8c0-20.3,16.5-36.8,36.8-36.8
		C284.5,243.2,300.9,259.7,300.9,280"/>
	<path fill="#BE1E2D" d="M319.4,325.6c30.6-53.2-15.7-87.3-15.7-87.3l-49.9-24.2c-0.1,0.6-0.1,1.2-0.1,1.8c-2.7-1.6-6.6-4.1-11-7.2
		c-4.4-3.2-9.5-7.2-14.2-12.2c-2.3-2.5-4.6-5.2-6.4-8.3c-1.8-3-3.2-6.4-3.4-10c-0.2-1.8,0.1-3.5,0.5-5.2c0.3-0.8,0.6-1.7,1-2.5
		l0.6-1.2l0.3-0.6c0.1-0.1,0.3-0.4,0.4-0.5c0.5-0.7,1-1.5,1.6-2.2l0.8-1c0.3-0.3,0.6-0.6,0.9-0.9c1.2-1.3,2.6-2.3,4-3.2
		c2.9-1.7,6.2-2.7,9.3-2.9c3.1-0.2,6.1,0.2,8.8,0.8c5.4,1.3,9.6,3.4,12.4,4.9c2.8,1.6,4.3,2.7,4.3,2.7s-1.5-1.2-4.3-2.8
		c-2.8-1.6-6.9-3.9-12.3-5.3c-2.7-0.7-5.7-1.2-9-1c-3.2,0.1-6.6,1-9.7,2.7c-1.5,0.9-3,1.9-4.3,3.2c-0.3,0.3-0.7,0.6-1,1l-0.9,1
		c-0.7,0.7-1.1,1.4-1.7,2.2c-0.1,0.2-0.3,0.3-0.4,0.6l-0.4,0.6l-0.7,1.2c-0.4,0.8-0.8,1.8-1.1,2.7c-0.5,1.9-0.9,3.8-0.7,5.7
		c0.2,3.9,1.6,7.6,3.4,10.8c1.9,3.3,4.1,6.2,6.5,8.8c4.7,5.3,9.8,9.4,14.2,12.9c4.4,3.4,8.3,6,11.1,7.8c0.5,0.3,0.9,0.6,1.4,0.9
		c0.4,33.7,37.8,58.5,37.8,58.5c0.5,4.4,0.7,8.4,0.6,12.1c-0.4-0.2-0.8-0.4-1.3-0.6c-2.5-1.2-5.8-2.6-9.2-3.9
		c-3.4-1.2-7-2.2-9.7-2.3c-0.7,0-1.3,0-1.9,0c-0.6,0-1,0.2-1.4,0.3s-0.7,0.2-0.8,0.4c-0.2,0.1-0.3,0.2-0.3,0.2s0.1,0,0.3-0.1
		c0.2-0.1,0.5-0.2,0.9-0.2c0.4-0.1,0.8-0.1,1.4-0.1c0.5,0,1.1,0.1,1.8,0.2c2.6,0.5,5.8,2,9,3.6c3.1,1.7,6.1,3.6,8.3,5
		c1.1,0.7,2,1.4,2.6,1.8c0.1,0,0.1,0.1,0.2,0.1c-0.1,1.3-0.2,2.6-0.4,3.8c-0.7-0.4-1.6-0.8-2.5-1.3c-2.8-1.4-6.5-3.1-10.3-4.6
		c-3.8-1.5-7.7-2.8-10.8-3.2c-0.8-0.1-1.5-0.1-2.1-0.1c-0.6,0-1.2,0.1-1.6,0.2c-0.4,0.1-0.8,0.2-1,0.4c-0.2,0.1-0.3,0.2-0.3,0.2
		s0.1,0,0.3-0.1c0.2-0.1,0.6-0.2,1-0.2c0.4,0,1,0,1.6,0c0.6,0.1,1.3,0.2,2,0.4c2.9,0.8,6.6,2.5,10.1,4.4c3.5,2,6.9,4.1,9.4,5.8
		c1.2,0.8,2.3,1.5,3,2.1c0.2,0.2,0.4,0.3,0.6,0.4c-0.8,3.8-2,7.1-3.4,10.1c-0.5-0.5-1.1-1.1-1.8-1.7c-2.2-2.1-5.2-4.9-8.4-7.5
		c-3.2-2.6-6.5-5-9.3-6.3c-0.7-0.3-1.4-0.6-2-0.8c-0.6-0.2-1.1-0.3-1.6-0.3c-0.5,0-0.8,0-1,0.1c-0.2,0-0.4,0.1-0.4,0.1s0.1,0,0.4,0
		c0.2,0,0.6,0,1,0.1c0.4,0.1,0.9,0.2,1.5,0.5c0.6,0.2,1.2,0.6,1.8,1c2.5,1.6,5.5,4.4,8.2,7.3c2.7,2.9,5.3,6,7.2,8.4
		c0.9,1.2,1.7,2.2,2.2,2.9c0.1,0.1,0.1,0.1,0.1,0.2c-1,1.5-2,3-3.1,4.3c-0.4-0.6-1-1.3-1.6-2.1c-1.9-2.4-4.4-5.7-7.2-8.7
		c-2.8-3-5.7-5.9-8.3-7.7c-0.6-0.4-1.3-0.8-1.8-1c-0.6-0.3-1.1-0.4-1.5-0.6c-0.5-0.1-0.8-0.1-1-0.1c-0.2,0-0.4,0-0.4,0s0.1,0,0.4,0
		c0.2,0,0.6,0.1,1,0.2c0.4,0.2,0.9,0.4,1.4,0.7c0.5,0.3,1.1,0.7,1.6,1.2c2.3,2,4.8,5.1,7,8.4c2.3,3.3,4.4,6.8,5.9,9.4
		c0.7,1.3,1.3,2.3,1.7,3.1c-1.6,1.5-3.3,2.9-5.1,4c-0.3-0.6-0.5-1.2-0.8-1.8c-1.3-2.8-3.2-6.5-5.2-10c-2.1-3.5-4.4-7-6.6-9.2
		c-0.6-0.5-1.1-1-1.6-1.4c-0.5-0.4-1-0.6-1.4-0.8c-0.4-0.2-0.7-0.3-1-0.3c-0.2,0-0.4-0.1-0.4-0.1s0.1,0,0.4,0.1
		c0.2,0,0.5,0.2,0.9,0.4c0.4,0.2,0.8,0.6,1.2,1c0.4,0.4,0.9,1,1.3,1.5c1.8,2.4,3.6,6,5.2,9.7c1.6,3.7,2.9,7.5,3.8,10.4
		c0.3,1,0.6,1.8,0.8,2.5c-2.2,1.2-4.5,2.1-6.7,2.9c-0.1-0.5-0.3-1-0.4-1.6c-0.8-3-2-6.9-3.4-10.8c-1.4-3.8-3.1-7.6-4.8-10.2
		c-0.4-0.6-0.9-1.2-1.3-1.7c-0.4-0.5-0.9-0.8-1.2-1.1c-0.4-0.2-0.7-0.4-0.9-0.5c-0.2-0.1-0.3-0.1-0.3-0.1s0.1,0.1,0.3,0.2
		c0.2,0.1,0.5,0.3,0.8,0.6c0.3,0.3,0.7,0.7,1,1.2c0.4,0.5,0.7,1.1,1,1.8c1.4,2.7,2.5,6.5,3.4,10.5c0.9,3.9,1.5,7.9,1.9,10.9
		c0.1,0.7,0.2,1.4,0.3,2c-14.2,3.8-27.7,1.5-27.7,1.5l-24.1-42.6c-11.3,18.3,1,28.5,1,28.5c-19-12.2-27.5-5.1-27.5-5.1
		c5.9,0.1,53.9,30.2,53.9,30.2C291.8,373.6,319.4,325.6,319.4,325.6"/>
	<path fill="#D84456" d="M328.7,277.6l-36.8,4.2c0.5,7.3,0.2,13.6-0.8,19l35.2,10C330.5,298.4,330.7,287.3,328.7,277.6"/>
	<path fill="#D84456" d="M284.6,352.5c9-2.6,16.2-7.2,21.7-11.9l-21.1-24.2c-3.1,5-7,8.7-11.4,11.5L284.6,352.5z"/>
	<path fill="#D84456" d="M261.3,354.2l-5.9-19.4c-6.8,1.2-13.2,1.2-17.4,0.9l-1.7,10.6C245.4,350.8,253.7,353.2,261.3,354.2"/>
	<path fill="#231F20" d="M295,241.7c-1.5,2.2-4.4,2.8-6.6,1.3c-2.2-1.4-2.8-4.4-1.3-6.6c1.5-2.2,4.4-2.8,6.6-1.3
		C295.8,236.6,296.4,239.5,295,241.7"/>
</g>
</svg>
