<?xml version="1.0" encoding="utf-8"?>
<!-- Generator: Adobe Illustrator 16.0.0, SVG Export Plug-In . SVG Version: 6.00 Build 0)  -->
<!DOCTYPE svg PUBLIC "-//W3C//DTD SVG 1.1//EN" "http://www.w3.org/Graphics/SVG/1.1/DTD/svg11.dtd">
<svg version="1.1" id="Layer_1" xmlns="http://www.w3.org/2000/svg" xmlns:xlink="http://www.w3.org/1999/xlink" x="0px" y="0px"
	 width="512px" height="512px" viewBox="0 0 512 512" enable-background="new 0 0 512 512" xml:space="preserve">
<g>
	<g>
		<g>
			<g>
				<g>
					<g>
						<path fill="#334D5C" d="M7.9,256C7.9,119,119,7.9,256,7.9C393,7.9,504.1,119,504.1,256c0,137-111.1,248.1-248.1,248.1
							C119,504.1,7.9,393,7.9,256z"/>
					</g>
				</g>
			</g>
		</g>
	</g>
	<g>
		<g>
			<path fill="#FFFFFF" d="M300.2,127.6c0,0-6.4-57.7,8-51.3c0,0,14.4,4.8,25.6,4.8c0,0,17.6,0,9.6,16c0,0-20.8,35.2-22.4,44.9
				L300.2,127.6z"/>
		</g>
	</g>
	<g>
		<g>
			<path fill="#EA7724" d="M331.4,138.4c-3,11.5-11.5,19.2-19,17.3l-15-3.9c-7.5-1.9-11.3-12.8-8.3-24.3l0,0
				c3-11.5,11.5-19.2,19-17.2l15,3.9C330.6,116.1,334.4,127,331.4,138.4L331.4,138.4z"/>
		</g>
	</g>
	<g>
		<g>
			<path fill="#E28126" d="M259,184.9c0,0-30,15.6-39.7,24c0,0-61.7,59.7-64.1,107.7c0,0,7.6,96.6,47.3,111c0,0,87.1,74,129.8-147.8
				c6-31.2-2.4-66.1-3.6-78.1c0,0,3.6-33.6,4.8-44.5c0,0,2.4-33.6-33.6-37.3C299.8,120,280.6,114,259,184.9z"/>
		</g>
	</g>
	<g>
		<g>
			<g>
				<path fill="#F59121" d="M265.4,184.9c15.3-50.1,29.3-61.8,36.3-64.3c-0.6-0.3-1.2-0.5-1.9-0.6c0,0-19.2-6-40.9,64.9
					c0,0-30,15.6-39.7,24c0,0-61.7,59.7-64.1,107.7c0,0,7.6,96.6,47.3,111c0,0,0.4-1,1.2-2.7C170.2,402,265.4,184.9,265.4,184.9z"/>
			</g>
		</g>
	</g>
</g>
</svg>
