<?xml version="1.0" encoding="utf-8"?>
<!-- Generator: Adobe Illustrator 16.0.0, SVG Export Plug-In . SVG Version: 6.00 Build 0)  -->
<!DOCTYPE svg PUBLIC "-//W3C//DTD SVG 1.1//EN" "http://www.w3.org/Graphics/SVG/1.1/DTD/svg11.dtd">
<svg version="1.1" id="Layer_1" xmlns="http://www.w3.org/2000/svg" xmlns:xlink="http://www.w3.org/1999/xlink" x="0px" y="0px"
	 width="512px" height="512px" viewBox="0 0 512 512" enable-background="new 0 0 512 512" xml:space="preserve">
<g>
	<g>
		<g>
			<g>
				<g>
					<g>
						<g>
							<g>
								<g>
									<g>
										<path fill="#EA4949" d="M504.1,256C504.1,119,393,7.9,256,7.9C119,7.9,7.9,119,7.9,256C7.9,393,119,504.1,256,504.1
											C393,504.1,504.1,393,504.1,256z"/>
									</g>
								</g>
							</g>
						</g>
					</g>
				</g>
			</g>
		</g>
	</g>
	<g>
		<g>
			<path fill="#FDBF23" d="M256,470.6c-1.4,0-2.5-1.1-2.5-2.5V127.3c0-1.4,1.1-2.5,2.5-2.5s2.5,1.1,2.5,2.5v340.8
				C258.5,469.5,257.4,470.6,256,470.6z"/>
		</g>
		<path fill="#FDBF23" d="M267.7,107.6c0.5,22.3-4.6,26.7-11.1,26.9c-6.4,0.1-11.8-4.1-12.3-26.4c-0.5-22.3,10.4-54.3,10.4-54.3
			S267.1,85.3,267.7,107.6z"/>
		<g>
			<path fill="#FDBF23" d="M139.5,324.5c0,0,29.2,7.6,44.5,41c21.8,47.6,56.8,90,71,95C255,460.5,245.2,347.4,139.5,324.5z"/>
			<path fill="#FDBF23" d="M372.5,324.5c0,0-29.2,7.6-44.5,41c-21.8,47.6-56.8,90-71,95C257,460.5,266.8,347.4,372.5,324.5z"/>
		</g>
		<g>
			<path fill="#FDBF23" d="M247.8,141.1c-6-13.1-30.3-26.1-30.3-26.1s3.1,22.7,9,35.8c6,13.1,11.9,13.5,17.8,10.9
				C250.2,158.9,253.8,154.2,247.8,141.1z"/>
			<path fill="#FDBF23" d="M264.2,141.1c-6,13.1-2.4,17.9,3.5,20.5c5.9,2.7,11.8,2.3,17.8-10.9c6-13.1,9-35.8,9-35.8
				S270.2,127.9,264.2,141.1z"/>
		</g>
		<g>
			<path fill="#FDBF23" d="M247.8,183.1c-6-13.1-30.3-26.1-30.3-26.1s3.1,22.7,9,35.8c6,13.1,11.9,13.5,17.8,10.9
				C250.2,200.9,253.8,196.2,247.8,183.1z"/>
			<path fill="#FDBF23" d="M264.2,183.1c-6,13.1-2.4,17.9,3.5,20.5c5.9,2.7,11.8,2.3,17.8-10.9c6-13.1,9-35.8,9-35.8
				S270.2,169.9,264.2,183.1z"/>
		</g>
		<g>
			<path fill="#FDBF23" d="M247.8,224.4c-6-13.1-30.3-26.1-30.3-26.1s3.1,22.7,9,35.8c6,13.1,11.9,13.5,17.8,10.9
				C250.2,242.3,253.8,237.5,247.8,224.4z"/>
			<path fill="#FDBF23" d="M264.2,224.4c-6,13.1-2.4,17.9,3.5,20.5c5.9,2.7,11.8,2.3,17.8-10.9c6-13.1,9-35.8,9-35.8
				S270.2,211.3,264.2,224.4z"/>
		</g>
		<g>
			<path fill="#FDBF23" d="M247.8,266.4c-6-13.1-30.3-26.1-30.3-26.1s3.1,22.7,9,35.8c6,13.1,11.9,13.5,17.8,10.9
				C250.2,284.3,253.8,279.5,247.8,266.4z"/>
			<path fill="#FDBF23" d="M264.2,266.4c-6,13.1-2.4,17.9,3.5,20.5c5.9,2.7,11.8,2.3,17.8-10.9c6-13.1,9-35.8,9-35.8
				S270.2,253.3,264.2,266.4z"/>
		</g>
		<g>
			<path fill="#FDBF23" d="M247.8,308.1c-6-13.1-30.3-26.1-30.3-26.1s3.1,22.7,9,35.8c6,13.1,11.9,13.5,17.8,10.9
				C250.2,325.9,253.8,321.2,247.8,308.1z"/>
			<path fill="#FDBF23" d="M264.2,308.1c-6,13.1-2.4,17.9,3.5,20.5c5.9,2.7,11.8,2.3,17.8-10.9c6-13.1,9-35.8,9-35.8
				S270.2,294.9,264.2,308.1z"/>
		</g>
		<g>
			<path fill="#FDBF23" d="M247.8,349.7c-6-13.1-30.3-26.1-30.3-26.1s3.1,22.7,9,35.8c6,13.1,11.9,13.5,17.8,10.9
				C250.2,367.6,253.8,362.9,247.8,349.7z"/>
			<path fill="#FDBF23" d="M264.2,349.7c-6,13.1-2.4,17.9,3.5,20.5c5.9,2.7,11.8,2.3,17.8-10.9c6-13.1,9-35.8,9-35.8
				S270.2,336.6,264.2,349.7z"/>
		</g>
	</g>
</g>
</svg>
